<svg width="141" height="21" viewBox="0 0 141 21" fill="none" xmlns="http://www.w3.org/2000/svg">
<path d="M5.53478 3.44104C8.55492 3.44104 10.9983 5.649 10.9983 8.65105C10.9983 11.6531 8.50955 13.8933 5.69681 13.8933C4.37469 13.8933 3.09793 13.5189 2.13227 12.4343H2.01558V20.0201H0V9.48387C0 5.80393 2.12579 3.44104 5.53478 3.44104ZM5.50883 12.1309C7.50497 12.1309 8.8725 10.5556 8.8725 8.65105C8.8725 6.74653 7.53738 5.20352 5.50883 5.20352C3.48029 5.20352 2.08694 6.75297 2.08694 8.63813C2.08694 10.5233 3.49325 12.1309 5.50883 12.1309Z" fill="#897AD6"/>
<path d="M12.8647 8.66394C12.8647 5.65543 15.3923 3.44104 18.3671 3.44104C21.3419 3.44104 23.8694 5.66189 23.8694 8.66394C23.8694 11.666 21.3419 13.8869 18.3671 13.8869C15.3923 13.8869 12.8647 11.666 12.8647 8.66394ZM18.3671 12.1309C20.3762 12.1309 21.7437 10.5878 21.7437 8.66394C21.7437 6.74004 20.3762 5.19706 18.3671 5.19706C16.358 5.19706 14.9904 6.72713 14.9904 8.66394C14.9904 10.6007 16.358 12.1309 18.3671 12.1309Z" fill="#897AD6"/>
<path d="M31.3028 13.8933C28.1401 13.8933 25.7422 11.6918 25.7422 8.67041C25.7422 5.64899 28.0818 3.44751 31.2316 3.44751C33.649 3.44751 35.9043 4.75162 36.4746 7.23073H34.4073C33.9017 5.90079 32.6962 5.20999 31.2899 5.20999C29.1641 5.20999 27.8679 6.78528 27.8679 8.70272C27.8679 10.6202 29.203 12.1373 31.3288 12.1373C32.7092 12.1373 33.96 11.5046 34.4461 10.0649H36.533C35.7876 12.699 33.6295 13.8998 31.3028 13.8998" fill="#897AD6"/>
<path d="M43.993 12.4471L40.6878 5.55855H40.6295V13.6738H38.6917V3.65405H41.7831L45.0559 10.5103H45.1142L48.3937 3.65405H51.4786V13.6738H49.5408V5.55855H49.4825L46.1771 12.4471H43.993Z" fill="#897AD6"/>
<path d="M53.6367 8.66394C53.6367 5.65543 56.1643 3.44104 59.1391 3.44104C62.1138 3.44104 64.6414 5.66189 64.6414 8.66394C64.6414 11.666 62.1138 13.8869 59.1391 13.8869C56.1643 13.8869 53.6367 11.666 53.6367 8.66394ZM59.1391 12.1309C61.1546 12.1309 62.5157 10.5878 62.5157 8.66394C62.5157 6.74004 61.1482 5.19706 59.1391 5.19706C57.13 5.19706 55.7625 6.72713 55.7625 8.66394C55.7625 10.6007 57.13 12.1309 59.1391 12.1309Z" fill="#897AD6"/>
<path d="M65.665 13.7643V11.6855H65.7104C66.0992 11.6855 66.5724 11.5112 66.8575 11.1819C67.2334 10.7687 67.4149 10.0198 67.6223 8.93522L67.9074 7.33411C68.238 5.48768 68.899 3.60901 71.6858 3.60901H75.6068V13.6739H73.5978V5.46835H72.0293C70.4609 5.46835 70.1304 5.89442 69.761 8.03137L69.5017 9.53563C69.2749 10.9108 68.9249 12.0987 68.2055 12.854C67.6611 13.4286 66.8964 13.7579 65.8789 13.7579H65.665V13.7643Z" fill="#897AD6"/>
<path d="M77.8428 8.66394C77.8428 5.65543 80.3704 3.44104 83.3452 3.44104C86.32 3.44104 88.8475 5.66189 88.8475 8.66394C88.8475 11.666 86.32 13.8869 83.3452 13.8869C80.3704 13.8869 77.8428 11.666 77.8428 8.66394ZM83.3452 12.1309C85.3543 12.1309 86.7218 10.5878 86.7218 8.66394C86.7218 6.74004 85.3543 5.19706 83.3452 5.19706C81.3361 5.19706 79.9686 6.72713 79.9686 8.66394C79.9686 10.6007 81.3361 12.1309 83.3452 12.1309Z" fill="#897AD6"/>
<path d="M91.1741 16.1079H89.2363V11.8146H90.5455C91.1223 11.169 91.4204 10.2135 91.6926 9.05144L92.1268 7.1921C92.5416 5.40378 93.3194 3.61548 95.8081 3.61548H99.716V11.8211H101.168V16.1143H99.2299V13.6804H91.1806V16.1143L91.1741 16.1079ZM97.7264 11.8533V5.4425H95.8404C94.6155 5.4425 94.2008 6.41739 93.9545 7.44389L93.5073 9.37424C93.261 10.4459 92.8916 11.3369 92.5157 11.7049V11.8469H97.7199L97.7264 11.8533Z" fill="#897AD6"/>
<path d="M108.193 13.8934C104.985 13.8934 102.659 11.6918 102.659 8.67043C102.659 5.64901 104.998 3.44753 108.122 3.44753C110.54 3.44753 113.443 5.02278 113.443 8.83183V9.24502H104.674C104.888 10.9171 106.197 12.1373 108.18 12.1373C109.36 12.1373 110.766 11.7048 111.155 10.6912H113.223C112.588 12.8991 110.248 13.8998 108.193 13.8998M104.7 0H106.787V2.07886H104.7V0ZM111.343 7.71495C111.026 6.19779 109.846 5.17774 108.096 5.17774C106.346 5.17774 105.134 6.26235 104.765 7.71495H111.35H111.343ZM109.23 0H111.317V2.07886H109.23V0Z" fill="#897AD6"/>
<path d="M122.925 3.65405V7.63741H124.61L126.982 3.65405H129.192L126.243 8.43795L129.438 13.6738H127.183L124.636 9.45155H122.925V13.6738H121.026V9.45155H119.321L116.774 13.6738H114.519L117.707 8.43795L114.765 3.65405H116.975L119.347 7.63741H121.026V3.65405H122.925Z" fill="#897AD6"/>
<path d="M130.844 9.16748L130.818 3.65405H132.827L132.84 6.50114H132.899C133.748 5.46818 134.824 4.97107 136.12 4.97107C138.589 4.97107 140.592 6.80457 140.592 9.36761C140.592 11.9307 138.55 13.8933 135.75 13.8933C132.951 13.8933 130.864 11.9048 130.851 9.16748M135.711 12.1308C137.306 12.1308 138.472 11.0139 138.472 9.45155C138.472 7.88919 137.306 6.74647 135.711 6.74647C134.117 6.74647 132.964 7.88919 132.964 9.45155C132.964 11.0139 134.13 12.1308 135.711 12.1308Z" fill="#897AD6"/>
</svg>
