<svg width="446" height="447" viewBox="0 0 446 447" fill="none" xmlns="http://www.w3.org/2000/svg">
<path d="M165.383 20.9415C199.659 -4.26593 246.341 -4.26592 280.617 20.9415C293.711 30.571 308.944 36.8897 325.009 39.357C367.033 45.8113 400.039 78.9247 406.471 120.956C408.932 137.031 415.245 152.321 424.858 165.439C450.033 199.792 450.033 246.523 424.858 280.876C415.245 293.994 408.932 309.284 406.471 325.359C400.039 367.39 367.033 400.504 325.009 406.958C308.944 409.425 293.711 415.744 280.617 425.373C246.341 450.581 199.659 450.581 165.383 425.373C152.289 415.744 137.055 409.425 120.99 406.958C78.9668 400.504 45.961 367.39 39.5283 325.359C37.0681 309.284 30.7549 293.994 21.1416 280.876C-4.03374 246.523 -4.03374 199.792 21.1416 165.439C30.7549 152.321 37.0681 137.031 39.5283 120.956C45.961 78.9247 78.9668 45.8113 120.99 39.357C137.055 36.8897 152.289 30.571 165.383 20.9415Z" stroke="#B3E427" stroke-width="3.48148"/>
</svg>
