<svg width="239" height="237" viewBox="0 0 239 237" fill="none" xmlns="http://www.w3.org/2000/svg">
<path fill-rule="evenodd" clip-rule="evenodd" d="M90.0592 12.8454C82.7512 18.1879 74.2547 21.6925 65.2934 23.0606C43.8101 26.3405 26.9516 43.1282 23.6579 64.5212C22.284 73.4448 18.7646 81.9056 13.3996 89.1829C0.537574 106.629 0.537574 130.371 13.3996 147.817C18.7646 155.094 22.284 163.555 23.6579 172.479C26.9516 193.872 43.8101 210.66 65.2934 213.939C74.2547 215.308 82.7512 218.812 90.0592 224.155C107.579 236.963 131.421 236.963 148.941 224.155C156.249 218.812 164.745 215.308 173.707 213.939C195.19 210.66 212.048 193.872 215.342 172.479C216.716 163.555 220.235 155.094 225.6 147.817C238.462 130.371 238.462 106.629 225.6 89.1829C220.235 81.9056 216.716 73.4448 215.342 64.5212C212.048 43.1282 195.19 26.3405 173.707 23.0606C164.745 21.6925 156.249 18.1879 148.941 12.8454C131.421 0.0374375 107.579 0.0374375 90.0592 12.8454ZM150.866 10.2341C132.2 -3.41134 106.8 -3.41134 88.1341 10.2341C81.2487 15.2677 73.2435 18.5696 64.8005 19.8586C41.9124 23.353 23.9515 41.2384 20.4424 64.0303C19.1479 72.4379 15.8321 80.4094 10.7773 87.2659C-2.92576 105.853 -2.92576 131.147 10.7773 149.734C15.8321 156.591 19.1479 164.562 20.4424 172.97C23.9515 195.762 41.9124 213.647 64.8005 217.141C73.2435 218.43 81.2486 221.732 88.1341 226.766C106.8 240.411 132.2 240.411 150.866 226.766C157.751 221.732 165.756 218.43 174.2 217.141C197.088 213.647 215.049 195.762 218.558 172.97C219.852 164.562 223.168 156.591 228.223 149.734C241.926 131.147 241.926 105.853 228.223 87.2659C223.168 80.4094 219.852 72.4379 218.558 64.0303C215.049 41.2384 197.088 23.353 174.2 19.8586C165.756 18.5696 157.751 15.2677 150.866 10.2341Z" fill="#B3E427"/>
</svg>
