<svg width="204" height="53" viewBox="0 0 204 53" fill="none" xmlns="http://www.w3.org/2000/svg">
<g clip-path="url(#clip0_104_5308)">
<path d="M-0.779785 14.9798V7.86347C-0.779785 3.64208 2.64834 0.219971 6.87711 0.219971H194.999C199.228 0.219971 202.656 3.64208 202.656 7.86347V25.9179C202.656 30.1392 199.228 33.5614 194.999 33.5614H110.842C108.812 33.5614 106.864 32.756 105.428 31.3226L98.9562 24.8621C97.5202 23.4287 95.5728 22.6234 93.542 22.6234H6.87711C2.64832 22.6234 -0.779785 19.2012 -0.779785 14.9798Z" fill="#897AD6" stroke="#897AD6" stroke-width="1.19849"/>
<path d="M30.1681 12.6371L24.5017 6.98051C23.9544 6.43423 23.0543 6.43423 22.507 6.98051L17.8467 11.6326L13.1864 6.98051C12.6216 6.43423 11.7389 6.43423 11.1741 6.98051L5.50759 12.6371C4.96036 13.1833 4.96036 14.082 5.50759 14.6283C6.07247 15.1746 6.97273 15.1746 7.51997 14.6283L12.1802 9.97619L16.8405 14.6283C17.3877 15.1746 18.288 15.1746 18.8352 14.6283L23.4955 9.97619L28.1558 14.6283C28.4382 14.9103 28.809 15.0336 29.1619 15.0336C29.5327 15.0336 29.8856 14.9103 30.1681 14.6283C30.7153 14.082 30.7153 13.1833 30.1681 12.6371Z" fill="#B3E427"/>
<path d="M40.8798 6.55762H35.2311C32.8833 6.55762 30.9768 8.46076 30.9768 10.8044C30.9768 13.1481 32.8833 15.0336 35.2311 15.0336H40.8798C43.2276 15.0336 45.1341 13.1481 45.1341 10.8044C45.1341 8.46076 43.2276 6.55762 40.8798 6.55762ZM40.8798 12.2142H35.2311C34.4367 12.2142 33.8013 11.5798 33.8013 10.8044C33.8013 10.0291 34.4367 9.3947 35.2311 9.3947H40.8798C41.6566 9.3947 42.292 10.0291 42.292 10.8044C42.292 11.5798 41.6566 12.2142 40.8798 12.2142Z" fill="#B3E427"/>
<path d="M59.2774 12.6371L53.6286 6.98051C53.0637 6.43423 52.181 6.43423 51.6161 6.98051L45.9497 12.6371C45.4025 13.1833 45.4025 14.082 45.9497 14.6283C46.5146 15.1746 47.4147 15.1746 47.962 14.6283L52.6222 9.97619L57.2825 14.6283C57.565 14.9103 57.9181 15.0336 58.2889 15.0336C58.6418 15.0336 59.0126 14.9103 59.2774 14.6283C59.8422 14.082 59.8422 13.1833 59.2774 12.6371Z" fill="#B3E427"/>
<path d="M70.0136 6.55762H64.3646C62.0168 6.55762 60.1104 8.46076 60.1104 10.8044C60.1104 13.1481 62.0168 15.0336 64.3646 15.0336H70.0136C72.3614 15.0336 74.2679 13.1481 74.2679 10.8044C74.2679 8.46076 72.3614 6.55762 70.0136 6.55762ZM70.0136 12.2142H64.3646C63.5704 12.2142 62.9348 11.5798 62.9348 10.8044C62.9348 10.0291 63.5704 9.3947 64.3646 9.3947H70.0136C70.7902 9.3947 71.4257 10.0291 71.4257 10.8044C71.4257 11.5798 70.7902 12.2142 70.0136 12.2142Z" fill="#B3E427"/>
<path d="M88.7794 6.68097C88.2498 6.45188 87.6497 6.57523 87.2437 6.98054L82.0009 12.2142H79.7589C78.9647 12.2142 78.3291 11.5798 78.3291 10.8044C78.3291 10.0291 78.9647 9.3947 79.7589 9.3947H82.5834C83.3602 9.3947 83.9955 8.76033 83.9955 7.98497C83.9955 7.19199 83.3602 6.55762 82.5834 6.55762H79.7589C77.4111 6.55762 75.5046 8.46076 75.5046 10.8044C75.5046 13.1481 77.4111 15.0336 79.7589 15.0336H82.5834C82.9542 15.0336 83.3247 14.8926 83.5895 14.6283L86.82 11.3859V16.461H79.7589C78.9647 16.461 78.3291 17.0954 78.3291 17.8707C78.3291 18.6461 78.9647 19.2805 79.7589 19.2805H88.2498C89.0266 19.2805 89.6619 18.6461 89.6619 17.8707V7.98497C89.6619 7.40346 89.309 6.89242 88.7794 6.68097Z" fill="#B3E427"/>
<path d="M101.508 6.55757H95.1532C94.7648 6.55757 94.4119 6.71618 94.1471 6.98049L91.305 9.79996C90.7577 10.3639 90.7577 11.2449 91.305 11.8088L94.1471 14.6283C94.4119 14.9102 94.7824 15.0336 95.1532 15.0336C95.5063 15.0336 95.8769 14.9102 96.1417 14.6283C96.7065 14.082 96.7065 13.1833 96.1417 12.637L94.3235 10.8044L95.7357 9.39466H101.508C101.896 9.39466 102.214 9.71184 102.214 10.0995C102.214 10.4872 101.896 10.8044 101.508 10.8044H99.3898C98.613 10.8044 97.9777 11.4388 97.9777 12.2141C97.9777 12.9895 98.613 13.6239 99.3898 13.6239H101.508C103.468 13.6239 105.056 12.0379 105.056 10.0995C105.056 8.14352 103.468 6.55757 101.508 6.55757ZM102.214 5.14784C103.009 5.14784 103.644 4.51346 103.644 3.7381C103.644 2.96276 103.009 2.32837 102.214 2.32837C101.438 2.32837 100.802 2.96276 100.802 3.7381C100.802 4.51346 101.438 5.14784 102.214 5.14784ZM95.1532 5.14784C95.93 5.14784 96.5653 4.51346 96.5653 3.7381C96.5653 2.96276 95.93 2.32837 95.1532 2.32837C94.3588 2.32837 93.7234 2.96276 93.7234 3.7381C93.7234 4.51346 94.3588 5.14784 95.1532 5.14784Z" fill="#B3E427"/>
<path d="M123.323 10.8044L125.159 8.97178C125.706 8.4255 125.706 7.52681 125.159 6.98054C124.612 6.43427 123.711 6.43427 123.164 6.98054L120.746 9.3947H117.074V7.98497C117.074 7.19199 116.456 6.55762 115.662 6.55762C114.885 6.55762 114.25 7.19199 114.25 7.98497V9.3947H110.596L108.177 6.98054C107.63 6.43427 106.73 6.43427 106.165 6.98054C105.618 7.52681 105.618 8.4255 106.165 8.97178L108.001 10.8044L106.165 12.6371C105.618 13.1834 105.618 14.0821 106.165 14.6283C106.73 15.1746 107.63 15.1746 108.177 14.6283L110.596 12.2142H114.25V13.6239C114.25 14.4169 114.885 15.0336 115.662 15.0336C116.456 15.0336 117.074 14.4169 117.074 13.6239V12.2142H120.746L123.164 14.6283C123.429 14.9103 123.8 15.0336 124.153 15.0336C124.523 15.0336 124.876 14.9103 125.159 14.6283C125.706 14.0821 125.706 13.1834 125.159 12.6371L123.323 10.8044Z" fill="#B3E427"/>
<path d="M139.535 6.55762C138.741 6.55762 138.105 7.19199 138.105 7.98497V9.3947H129.614V7.98497C129.614 7.19199 128.979 6.55762 128.202 6.55762C127.425 6.55762 126.79 7.19199 126.79 7.98497V13.6239C126.79 14.4169 127.425 15.0336 128.202 15.0336C128.979 15.0336 129.614 14.4169 129.614 13.6239V12.2142H138.105V13.6239C138.105 14.4169 138.741 15.0336 139.535 15.0336C140.312 15.0336 140.947 14.4169 140.947 13.6239V7.98497C140.947 7.19199 140.312 6.55762 139.535 6.55762Z" fill="#B3E427"/>
<path d="M160.578 6.55762C159.801 6.55762 159.166 7.19199 159.166 7.98497V9.3947H156.342C156.253 9.3947 156.183 9.3947 156.094 9.41232C155.512 7.70303 153.906 6.57523 152.087 6.55762H149.263C148.892 6.55762 148.522 6.71622 148.257 6.98054L145.009 10.2229V7.98497C145.009 7.19199 144.373 6.55762 143.596 6.55762C142.82 6.55762 142.184 7.19199 142.184 7.98497V13.6239C142.184 14.2054 142.52 14.7164 143.049 14.9279C143.579 15.157 144.197 15.0336 144.603 14.6283L149.845 9.3947H152.087C152.882 9.3947 153.499 10.0291 153.499 10.8044C153.499 11.5798 152.882 12.2142 152.087 12.2142H149.263C148.486 12.2142 147.851 12.8485 147.851 13.6239C147.851 14.4169 148.486 15.0513 149.263 15.0513H152.087C153.906 15.0336 155.512 13.9058 156.094 12.1966C156.183 12.2142 156.253 12.2142 156.342 12.2142H159.166V13.6239C159.166 14.4169 159.801 15.0513 160.578 15.0513C161.372 15.0513 162.008 14.4169 162.008 13.6239V7.98497C162.008 7.19199 161.372 6.55762 160.578 6.55762Z" fill="#B3E427"/>
<path d="M168.899 5.14784H171.724C172.5 5.14784 173.136 4.51346 173.136 3.7381C173.136 2.96276 172.5 2.32837 171.724 2.32837H168.899C168.105 2.32837 167.487 2.96276 167.487 3.7381C167.487 4.51346 168.105 5.14784 168.899 5.14784ZM176.507 6.68092C175.978 6.45183 175.378 6.57519 174.972 6.98049L169.729 12.2141H167.487C166.693 12.2141 166.057 11.5797 166.057 10.8044V7.98492C166.057 7.19194 165.422 6.55757 164.645 6.55757C163.868 6.55757 163.233 7.19194 163.233 7.98492V10.8044C163.233 13.1481 165.139 15.0512 167.487 15.0512H170.311C170.682 15.0512 171.053 14.8926 171.318 14.6283L174.548 11.3859V13.6239C174.548 14.4168 175.184 15.0512 175.978 15.0512C176.755 15.0512 177.39 14.4168 177.39 13.6239V7.98492C177.39 7.40342 177.037 6.89237 176.507 6.68092Z" fill="#B3E427"/>
<path d="M112.88 22.3267H108.449C107.837 22.3267 107.341 22.8218 107.341 23.4325C107.341 24.0433 107.837 24.5384 108.449 24.5384H112.88C113.492 24.5384 113.988 24.0433 113.988 23.4325C113.988 22.8218 113.492 22.3267 112.88 22.3267Z" fill="white"/>
<path d="M187.854 10.0205H183.423C182.811 10.0205 182.315 10.5156 182.315 11.1264C182.315 11.7371 182.811 12.2323 183.423 12.2323H187.854C188.466 12.2323 188.962 11.7371 188.962 11.1264C188.962 10.5156 188.466 10.0205 187.854 10.0205Z" fill="white"/>
<path d="M134.483 22.3267H126.728C126.116 22.3267 125.62 22.8218 125.62 23.4325C125.62 24.0433 126.116 24.5384 126.728 24.5384H134.483C135.094 24.5384 135.59 24.0433 135.59 23.4325C135.59 22.8218 135.094 22.3267 134.483 22.3267Z" fill="white"/>
<path d="M124.235 19.562H122.573C121.809 19.562 121.189 20.1809 121.189 20.9444C121.189 21.7078 121.809 22.3267 122.573 22.3267H124.235C125 22.3267 125.62 21.7078 125.62 20.9444C125.62 20.1809 125 19.562 124.235 19.562Z" fill="white"/>
<path d="M194.928 7.25586H193.266C192.502 7.25586 191.882 7.87476 191.882 8.6382C191.882 9.40165 192.502 10.0205 193.266 10.0205H194.928C195.693 10.0205 196.313 9.40165 196.313 8.6382C196.313 7.87476 195.693 7.25586 194.928 7.25586Z" fill="white"/>
<path d="M145.838 19.562H144.176C143.411 19.562 142.791 20.1809 142.791 20.9444C142.791 21.7078 143.411 22.3267 144.176 22.3267H145.838C146.602 22.3267 147.222 21.7078 147.222 20.9444C147.222 20.1809 146.602 19.562 145.838 19.562Z" fill="white"/>
<path d="M120.804 24.5383H116.373C115.608 24.5383 114.988 25.1572 114.988 25.9207C114.988 26.6841 115.608 27.303 116.373 27.303H120.804C121.569 27.303 122.189 26.6841 122.189 25.9207C122.189 25.1572 121.569 24.5383 120.804 24.5383Z" fill="white"/>
<path d="M192.473 12.2769H190.304C189.541 12.2769 188.923 12.8939 188.923 13.6551V13.6551C188.923 14.4163 189.541 15.0334 190.304 15.0334H192.473C193.236 15.0334 193.854 14.4163 193.854 13.6551V13.6551C193.854 12.8939 193.236 12.2769 192.473 12.2769Z" fill="white"/>
<path d="M142.407 24.5383H137.975C137.211 24.5383 136.591 25.1572 136.591 25.9207C136.591 26.6841 137.211 27.303 137.975 27.303H142.407C143.171 27.303 143.791 26.6841 143.791 25.9207C143.791 25.1572 143.171 24.5383 142.407 24.5383Z" fill="white"/>
<path fill-rule="evenodd" clip-rule="evenodd" d="M157.111 19.1849C155.971 19.1849 154.981 19.8258 154.483 20.7664H161.368C163.646 20.7664 165.493 22.6102 165.493 24.8845C165.493 27.1591 163.646 29.0029 161.368 29.0029H155.62C153.272 29.0029 151.368 27.1024 151.368 24.7583V22.1501C151.368 18.984 153.939 16.4175 157.111 16.4175H160.477C161.243 16.4175 161.863 17.037 161.863 17.8012C161.863 18.5654 161.243 19.1849 160.477 19.1849H157.111ZM154.14 24.7583V23.5338H161.368C162.115 23.5338 162.721 24.1386 162.721 24.8845C162.721 25.6307 162.115 26.2355 161.368 26.2355H155.62C154.803 26.2355 154.14 25.574 154.14 24.7583ZM196.319 21.974C196.319 21.1856 195.679 20.5465 194.889 20.5465H183.745C182.955 20.5465 182.315 21.1856 182.315 21.974C182.315 22.7624 182.955 23.4014 183.745 23.4014H188.035V27.6841C188.035 28.4725 188.675 29.1116 189.465 29.1116C190.255 29.1116 190.895 28.4725 190.895 27.6841V23.4014H194.889C195.679 23.4014 196.319 22.7624 196.319 21.974ZM179.918 20.7207C179.389 20.4917 178.789 20.615 178.383 21.0203L173.14 26.254H170.898C170.104 26.254 169.468 25.6195 169.468 24.8443V22.0247C169.468 21.2318 168.832 20.5974 168.056 20.5974C167.279 20.5974 166.643 21.2318 166.643 22.0247V24.8443C166.643 27.188 168.55 29.0733 170.898 29.0733H173.722C174.093 29.0733 174.464 28.9323 174.728 28.6682L177.959 25.4258V27.6636C177.959 28.4567 178.594 29.0733 179.389 29.0733C180.165 29.0733 180.801 28.4567 180.801 27.6636V22.0247C180.801 21.4432 180.448 20.9322 179.918 20.7207Z" fill="#B3E427"/>
<path d="M51.5869 50.1537H50.8233V47.4529C50.8233 47.3834 50.8321 47.3137 50.861 47.2499L50.8524 47.2413C50.7913 47.2732 50.7275 47.2732 50.6347 47.2732H49.3369C49.2442 47.2732 49.1803 47.2732 49.1193 47.2413L49.1104 47.2499C49.1424 47.3137 49.1483 47.3834 49.1483 47.4529V50.1537H48.3848V46.5662H51.5809V50.1537H51.5869Z" fill="#251E45"/>
<path d="M56.2663 48.3597C56.2663 49.4784 55.5434 50.2695 54.5245 50.2695C53.9264 50.2695 53.4592 49.9827 53.2007 49.4551L53.1688 49.4639C53.2153 49.6348 53.2384 49.913 53.2384 50.2173V51.7068H52.4749V46.5661H53.2153C53.2153 46.8762 53.2007 47.1253 53.1688 47.2557L53.2007 47.2643C53.4649 46.7369 53.9236 46.45 54.5245 46.45C55.5434 46.45 56.2663 47.2412 56.2663 48.3597ZM53.2093 48.3597C53.2093 49.067 53.6914 49.5567 54.3765 49.5567C55.0616 49.5567 55.4564 49.1046 55.4564 48.3597C55.4564 47.6151 55.0528 47.1629 54.3765 47.1629C53.7 47.1629 53.2093 47.6527 53.2093 48.3597Z" fill="#251E45"/>
<path d="M60.641 48.3597C60.641 49.4551 59.8078 50.2695 58.6728 50.2695C57.5378 50.2695 56.7046 49.4551 56.7046 48.3597C56.7046 47.2643 57.5378 46.45 58.6728 46.45C59.8078 46.45 60.641 47.2643 60.641 48.3597ZM57.5144 48.3597C57.5144 49.0582 57.9819 49.5248 58.6728 49.5248C59.3636 49.5248 59.8311 49.0582 59.8311 48.3597C59.8311 47.6615 59.3636 47.1948 58.6728 47.1948C57.9819 47.1948 57.5144 47.6615 57.5144 48.3597Z" fill="#251E45"/>
<path d="M64.6274 48.3597V48.5075H62.3165C62.0523 48.5075 61.9274 48.4932 61.8432 48.4468L61.8287 48.4613L61.8607 48.5539C61.9391 49.1914 62.3339 49.5479 62.9725 49.5479C63.3935 49.5479 63.7041 49.4001 64.0613 49.0206L64.5285 49.5248C64.1077 50.0291 63.6026 50.2695 62.958 50.2695C61.8375 50.2695 61.0828 49.516 61.0828 48.383C61.0828 47.2498 61.8056 46.45 62.9117 46.45C64.0176 46.45 64.6303 47.1717 64.6303 48.3597M61.8695 47.9946L61.884 48.0092C61.9682 47.9628 62.1393 47.9309 62.3281 47.9309H63.2367C63.6112 47.9309 63.7361 47.9454 63.8116 48.0004L63.8262 47.9861C63.7797 47.4499 63.4371 47.1398 62.8855 47.1398C62.3339 47.1398 61.945 47.4585 61.8666 47.9946" fill="#251E45"/>
<path d="M67.2981 49.7102L67.1181 49.0726C67.0252 48.7076 66.9002 48.5829 66.613 48.5829H66.279C66.1862 48.5829 66.0847 48.5741 66.0382 48.5684L66.0294 48.5772C66.0613 48.6786 66.0673 48.7569 66.0673 48.9046V50.1535H65.3037V46.566H66.0673V47.676C66.0673 47.8092 66.0585 47.8844 66.0294 47.986L66.0382 47.9946C66.0847 47.9858 66.1862 47.9801 66.279 47.9801H66.613C66.9091 47.9801 66.9932 47.9106 67.1267 47.5455L67.3909 46.9078C67.4926 46.65 67.7015 46.5427 68.0905 46.5427H68.471V47.2267H68.3084C68.082 47.2267 67.9978 47.2816 67.9048 47.4991L67.7799 47.8266C67.6783 48.1222 67.4373 48.2612 67.0166 48.27V48.3018C67.4752 48.3104 67.6872 48.4408 67.7799 48.7683L67.928 49.2726C67.9919 49.4667 68.0441 49.4986 68.2939 49.4986H68.4884V50.1826H68.0383C67.6261 50.1826 67.3939 50.0348 67.2981 49.7159" fill="#251E45"/>
<path d="M72.1811 46.5662V47.2732H71.0547C70.9619 47.2732 70.898 47.2732 70.837 47.2413L70.8284 47.2499C70.8604 47.3108 70.8661 47.3834 70.8661 47.4529V50.1537H70.1025V47.4529C70.1025 47.3834 70.1113 47.3137 70.1404 47.2499L70.1316 47.2413C70.0706 47.2732 70.0067 47.2732 69.9139 47.2732H68.7847V46.5662H72.1753H72.1811Z" fill="#251E45"/>
<path d="M78.7679 48.3597C78.7679 49.4551 77.9347 50.2695 76.7995 50.2695C75.6645 50.2695 74.8313 49.4551 74.8313 48.3597C74.8313 47.2643 75.6645 46.45 76.7995 46.45C77.9347 46.45 78.7679 47.2643 78.7679 48.3597ZM75.6411 48.3597C75.6411 49.0582 76.1086 49.5248 76.7995 49.5248C77.4906 49.5248 77.9578 49.0582 77.9578 48.3597C77.9578 47.6615 77.4906 47.1948 76.7995 47.1948C76.1086 47.1948 75.6411 47.6615 75.6411 48.3597Z" fill="#251E45"/>
<path d="M82.3704 46.5662V47.2732H81.2412C81.1482 47.2732 81.0843 47.2732 81.0233 47.2413L81.0147 47.2499C81.0466 47.3108 81.0524 47.3834 81.0524 47.4529V50.1537H80.289V47.4529C80.289 47.3834 80.2976 47.3137 80.3267 47.2499L80.3179 47.2413C80.2571 47.2732 80.1932 47.2732 80.1002 47.2732H78.9709V46.5662H82.3616H82.3704Z" fill="#251E45"/>
<path d="M90.1595 45.5168C91.5121 45.5168 92.6066 46.508 92.6066 47.8557C92.6066 49.2031 91.4918 50.2088 90.2319 50.2088C89.6398 50.2088 89.0679 50.0405 88.6354 49.5539H88.583V52.9588H87.6802V48.2293C87.6802 46.5775 88.6323 45.5168 90.1595 45.5168ZM90.1478 49.4175C91.042 49.4175 91.6544 48.7105 91.6544 47.8557C91.6544 47.0006 91.0565 46.3081 90.1478 46.3081C89.239 46.3081 88.6149 47.0035 88.6149 47.8497C88.6149 48.696 89.245 49.4175 90.1478 49.4175Z" fill="#897AD6"/>
<path d="M93.4424 47.8614C93.4424 46.5109 94.5747 45.5168 95.9071 45.5168C97.2397 45.5168 98.3719 46.5137 98.3719 47.8614C98.3719 49.2088 97.2397 50.2057 95.9071 50.2057C94.5747 50.2057 93.4424 49.2088 93.4424 47.8614ZM95.9071 49.4175C96.8071 49.4175 97.4195 48.725 97.4195 47.8614C97.4195 46.9978 96.8071 46.3052 95.9071 46.3052C95.0072 46.3052 94.3945 46.992 94.3945 47.8614C94.3945 48.7307 95.0072 49.4175 95.9071 49.4175Z" fill="#897AD6"/>
<path d="M101.702 50.2089C100.285 50.2089 99.2109 49.2206 99.2109 47.8643C99.2109 46.5081 100.259 45.52 101.67 45.52C102.753 45.52 103.763 46.1052 104.018 47.218H103.092C102.866 46.6211 102.326 46.3111 101.696 46.3111C100.744 46.3111 100.163 47.0181 100.163 47.8788C100.163 48.7396 100.761 49.4205 101.713 49.4205C102.332 49.4205 102.892 49.1366 103.11 48.4902H104.044C103.711 49.6727 102.744 50.2117 101.702 50.2117" fill="#897AD6"/>
<path d="M107.386 49.5596L105.906 46.4674H105.879V50.1103H105.011V45.6125H106.396L107.862 48.6903H107.888L109.357 45.6125H110.739V50.1103H109.871V46.4674H109.845L108.364 49.5596H107.386Z" fill="#897AD6"/>
<path d="M111.706 47.8614C111.706 46.5109 112.838 45.5168 114.17 45.5168C115.503 45.5168 116.635 46.5137 116.635 47.8614C116.635 49.2088 115.503 50.2057 114.17 50.2057C112.838 50.2057 111.706 49.2088 111.706 47.8614ZM114.17 49.4175C115.073 49.4175 115.683 48.725 115.683 47.8614C115.683 46.9978 115.07 46.3052 114.17 46.3052C113.27 46.3052 112.658 46.992 112.658 47.8614C112.658 48.7307 113.27 49.4175 114.17 49.4175Z" fill="#897AD6"/>
<path d="M117.094 50.1507V49.2176H117.114C117.288 49.2176 117.5 49.1393 117.628 48.9915C117.796 48.8062 117.878 48.4699 117.97 47.983L118.098 47.2643C118.246 46.4357 118.542 45.5923 119.791 45.5923H121.547V50.1103H120.647V46.4269H119.944C119.242 46.4269 119.094 46.6182 118.928 47.5773L118.812 48.2526C118.711 48.8699 118.554 49.403 118.232 49.7421C117.988 50.0001 117.645 50.1479 117.19 50.1479H117.094V50.1507Z" fill="#897AD6"/>
<path d="M122.548 47.8614C122.548 46.5109 123.68 45.5168 125.013 45.5168C126.345 45.5168 127.478 46.5137 127.478 47.8614C127.478 49.2088 126.345 50.2057 125.013 50.2057C123.68 50.2057 122.548 49.2088 122.548 47.8614ZM125.013 49.4175C125.913 49.4175 126.525 48.725 126.525 47.8614C126.525 46.9978 125.913 46.3052 125.013 46.3052C124.113 46.3052 123.5 46.992 123.5 47.8614C123.5 48.7307 124.113 49.4175 125.013 49.4175Z" fill="#897AD6"/>
<path d="M128.52 51.2029H127.652V49.2755H128.238C128.496 48.9859 128.63 48.5568 128.752 48.0354L128.947 47.2006C129.132 46.3979 129.481 45.5952 130.596 45.5952H132.346V49.2786H132.996V51.2057H132.128V50.1132H128.523V51.2057L128.52 51.2029ZM131.455 49.2931V46.4153H130.61C130.061 46.4153 129.876 46.8529 129.765 47.3136L129.565 48.1801C129.455 48.6613 129.289 49.0611 129.121 49.2263V49.29H131.452L131.455 49.2931Z" fill="#897AD6"/>
<path d="M136.143 50.2088C134.706 50.2088 133.664 49.2205 133.664 47.8643C133.664 46.5081 134.712 45.5197 136.111 45.5197C137.194 45.5197 138.495 46.227 138.495 47.9366V48.1222H134.567C134.663 48.8728 135.249 49.4204 136.137 49.4204C136.666 49.4204 137.296 49.2262 137.47 48.7714H138.396C138.112 49.7624 137.063 50.2117 136.143 50.2117M134.579 43.9724H135.513V44.9055H134.579V43.9724ZM137.554 47.4354C137.412 46.7544 136.883 46.2965 136.1 46.2965C135.316 46.2965 134.773 46.7834 134.607 47.4354H137.557H137.554ZM136.608 43.9724H137.542V44.9055H136.608V43.9724Z" fill="#897AD6"/>
<path d="M142.742 45.6125V47.4007H143.497L144.559 45.6125H145.549L144.228 47.76L145.659 50.1103H144.649L143.508 48.215H142.742V50.1103H141.891V48.215H141.128L139.987 50.1103H138.977L140.405 47.76L139.087 45.6125H140.077L141.14 47.4007H141.891V45.6125H142.742Z" fill="#897AD6"/>
<path d="M146.29 48.0875L146.278 45.6125H147.178L147.184 46.8905H147.21C147.59 46.4269 148.072 46.2037 148.653 46.2037C149.759 46.2037 150.656 47.0268 150.656 48.1772C150.656 49.3278 149.741 50.2088 148.487 50.2088C147.233 50.2088 146.299 49.3162 146.293 48.0875M148.47 49.4176C149.184 49.4176 149.707 48.9164 149.707 48.215C149.707 47.5137 149.184 47.0007 148.47 47.0007C147.756 47.0007 147.239 47.5137 147.239 48.215C147.239 48.9164 147.762 49.4176 148.47 49.4176Z" fill="#897AD6"/>
</g>
<defs>
<clipPath id="clip0_104_5308">
<rect width="204" height="53" fill="white"/>
</clipPath>
</defs>
</svg>
