<svg width="376" height="378" viewBox="0 0 376 378" fill="none" xmlns="http://www.w3.org/2000/svg">
<path d="M-2 183C22.0319 183 45.8285 178.267 68.0311 169.07C90.2336 159.873 110.407 146.394 127.401 129.401C144.394 112.407 157.873 92.2337 167.07 70.0311C176.267 47.8285 181 24.0319 181 7.2596e-06C181 -24.0319 176.267 -47.8285 167.07 -70.0311C157.873 -92.2337 144.394 -112.407 127.401 -129.401C110.407 -146.394 90.2336 -159.873 68.0311 -169.07C45.8285 -178.267 22.0319 -183 -2 -183L-1.99999 7.25961e-06L-2 183Z" fill="url(#paint0_radial_1303_6449)"/>
<path d="M316.819 -106.408C308.596 -84.0821 314.319 -59.0073 331.414 -42.4602C355.407 -19.2372 355.407 19.2372 331.414 42.4603C314.319 59.0073 308.596 84.0821 316.819 106.408C328.359 137.741 311.666 172.405 279.973 182.919C257.392 190.41 241.356 210.518 239.077 234.2C235.88 267.438 205.799 291.426 172.684 287.148C149.088 284.099 125.916 295.258 113.587 315.607C96.2854 344.165 58.7755 352.726 30.7961 334.503C10.8598 321.519 -14.8598 321.519 -34.7961 334.503C-62.7756 352.726 -100.285 344.165 -117.587 315.607C-129.916 295.258 -153.088 284.099 -176.684 287.147C-209.799 291.426 -239.88 267.438 -243.077 234.2C-245.356 210.518 -261.392 190.41 -283.973 182.918C-315.666 172.405 -332.359 137.741 -320.819 106.408C-312.596 84.0821 -318.319 59.0073 -335.414 42.4602C-359.407 19.2372 -359.407 -19.2372 -335.414 -42.4602C-318.319 -59.0073 -312.596 -84.0821 -320.819 -106.408C-332.359 -137.741 -315.666 -172.405 -283.973 -182.918C-261.391 -190.41 -245.356 -210.518 -243.077 -234.2C-239.88 -267.438 -209.799 -291.426 -176.684 -287.147C-153.088 -284.099 -129.916 -295.258 -117.587 -315.607C-100.285 -344.165 -62.7755 -352.726 -34.796 -334.503C-14.8598 -321.519 10.8598 -321.519 30.7961 -334.503C58.7756 -352.726 96.2854 -344.165 113.587 -315.607C125.916 -295.258 149.088 -284.099 172.684 -287.147C205.799 -291.426 235.88 -267.438 239.077 -234.2C241.356 -210.518 257.392 -190.41 279.973 -182.918C311.666 -172.405 328.359 -137.741 316.819 -106.408Z" stroke="#BEE64C"/>
<path d="M241.862 -134.857C245.067 -113.95 253.278 -94.1277 265.795 -77.0776C299.468 -31.2092 299.468 31.2092 265.795 77.0776C253.278 94.1277 245.067 113.95 241.862 134.857C233.238 191.102 189.102 235.238 132.857 243.862C111.95 247.067 92.1276 255.278 75.0776 267.795C29.2092 301.468 -33.2093 301.468 -79.0777 267.795C-96.1277 255.278 -115.95 247.067 -136.857 243.861C-193.102 235.238 -237.238 191.102 -245.862 134.857C-249.067 113.95 -257.278 94.1276 -269.795 77.0776C-303.468 31.2092 -303.468 -31.2093 -269.795 -77.0776C-257.278 -94.1277 -249.067 -113.95 -245.862 -134.857C-237.238 -191.102 -193.102 -235.238 -136.857 -243.862C-115.95 -247.067 -96.1277 -255.278 -79.0776 -267.795C-33.2092 -301.468 29.2092 -301.468 75.0776 -267.795C92.1277 -255.278 111.95 -247.067 132.857 -243.862C189.102 -235.238 233.238 -191.102 241.862 -134.857Z" stroke="#BEE64C"/>
<path d="M231.61 -44.3353C222.993 -35.7458 224.814 -21.3308 235.297 -15.1541C246.843 -8.3505 246.843 8.35049 235.297 15.1541C224.814 21.3308 222.993 35.7458 231.61 44.3353C241.102 53.7967 236.949 69.973 224.073 73.6913C212.384 77.0671 207.035 90.5763 213.245 101.039C220.086 112.564 212.04 127.199 198.644 127.598C186.483 127.961 177.942 139.716 181.356 151.394C185.115 164.258 173.683 176.432 160.608 173.488C148.739 170.815 137.543 180.076 137.945 192.236C138.387 205.631 124.286 214.58 112.355 208.476C101.523 202.935 88.3762 209.122 85.7411 221C82.8386 234.084 66.955 239.245 56.9164 230.366C47.8027 222.305 33.5305 225.027 28.0242 235.877C21.959 247.828 5.29096 248.877 -2.22423 237.78C-9.04693 227.706 -23.5478 226.794 -31.5794 235.933C-40.426 246 -56.8312 242.871 -61.3507 230.254C-65.4537 218.8 -79.2722 214.31 -89.3243 221.165C-100.397 228.716 -115.508 221.605 -116.748 208.26C-117.874 196.146 -130.141 188.36 -141.582 192.5C-154.185 197.06 -167.053 186.414 -164.935 173.181C-163.013 161.167 -172.959 150.575 -185.07 151.74C-198.41 153.022 -208.227 139.511 -202.885 127.22C-198.035 116.061 -205.034 103.329 -217.054 101.445C-230.295 99.3694 -236.443 83.8412 -228.212 73.2649C-220.739 63.663 -224.352 49.5899 -235.526 44.7758C-247.835 39.473 -249.928 22.9037 -239.325 14.7066C-229.699 7.26478 -229.699 -7.26482 -239.325 -14.7066C-249.928 -22.9037 -247.835 -39.473 -235.526 -44.7758C-224.352 -49.59 -220.739 -63.6631 -228.212 -73.2649C-236.443 -83.8413 -230.295 -99.3695 -217.054 -101.445C-205.034 -103.329 -198.035 -116.061 -202.885 -127.22C-208.227 -139.511 -198.41 -153.022 -185.07 -151.74C-172.959 -150.575 -163.013 -161.167 -164.935 -173.181C-167.053 -186.414 -154.185 -197.06 -141.582 -192.5C-130.141 -188.36 -117.874 -196.146 -116.748 -208.26C-115.508 -221.605 -100.397 -228.716 -89.3243 -221.165C-79.2722 -214.31 -65.4537 -218.8 -61.3507 -230.254C-56.8312 -242.871 -40.426 -246 -31.5793 -235.933C-23.5478 -226.794 -9.04691 -227.706 -2.22421 -237.78C5.29098 -248.877 21.959 -247.828 28.0242 -235.877C33.5305 -225.027 47.8027 -222.305 56.9164 -230.366C66.955 -239.245 82.8386 -234.084 85.7412 -221C88.3763 -209.122 101.523 -202.935 112.355 -208.476C124.286 -214.58 138.387 -205.631 137.945 -192.236C137.543 -180.076 148.739 -170.815 160.608 -173.488C173.683 -176.432 185.115 -164.258 181.356 -151.394C177.942 -139.716 186.483 -127.961 198.644 -127.598C212.04 -127.199 220.086 -112.564 213.245 -101.039C207.035 -90.5763 212.384 -77.0671 224.073 -73.6913C236.949 -69.973 241.102 -53.7967 231.61 -44.3353Z" stroke="#BEE64C"/>
<defs>
<radialGradient id="paint0_radial_1303_6449" cx="0" cy="0" r="1" gradientUnits="userSpaceOnUse" gradientTransform="translate(-1.99999 7.25961e-06) rotate(-180) scale(183 183)">
<stop stop-color="#C5FF1F"/>
<stop offset="1" stop-color="#D9D9D9" stop-opacity="0"/>
</radialGradient>
</defs>
</svg>
