<svg width="528" height="660" viewBox="0 0 528 660" fill="none" xmlns="http://www.w3.org/2000/svg">
<path d="M165.76 488.815C139.099 514.622 139.099 557.378 165.76 583.185C184.726 601.542 191.075 629.361 181.953 654.129C169.129 688.949 187.68 727.47 222.898 739.153C247.951 747.464 265.741 769.772 268.269 796.046C271.822 832.982 305.25 859.639 342.05 854.885C368.227 851.502 393.935 863.883 407.613 886.458C426.84 918.194 468.523 927.708 499.616 907.457C521.733 893.052 550.267 893.052 572.385 907.457C603.478 927.708 645.161 918.194 664.388 886.458C678.065 863.883 703.773 851.502 729.951 854.884C766.751 859.639 800.178 832.981 803.732 796.046C806.259 769.772 824.05 747.464 849.102 739.153C884.321 727.47 902.872 688.949 890.048 654.129C880.925 629.361 887.274 601.542 906.24 583.185C932.902 557.378 932.902 514.622 906.24 488.815C887.274 470.458 880.925 442.639 890.048 417.871C902.872 383.052 884.321 344.53 849.102 332.847C824.05 324.536 806.259 302.228 803.732 275.954C800.178 239.019 766.751 212.361 729.951 217.116C703.773 220.498 678.065 208.118 664.388 185.542C645.161 153.807 603.477 144.293 572.385 164.543C550.267 178.948 521.733 178.948 499.616 164.543C468.523 144.293 426.84 153.807 407.612 185.542C393.935 208.118 368.227 220.498 342.05 217.116C305.25 212.361 271.822 239.019 268.269 275.954C265.741 302.228 247.951 324.536 222.898 332.847C187.68 344.53 169.129 383.052 181.953 417.871C191.075 442.639 184.726 470.458 165.76 488.815Z" stroke="#BEE64C"/>
<path d="M254.992 455.11C219.653 503.247 219.653 568.753 254.992 616.889C268.123 634.776 276.737 655.572 280.1 677.505C289.149 736.531 335.469 782.85 394.495 791.9C416.428 795.263 437.223 803.876 455.11 817.008C503.247 852.346 568.752 852.346 616.889 817.008C634.776 803.876 655.571 795.263 677.505 791.9C736.531 782.85 782.85 736.531 791.9 677.505C795.262 655.572 803.876 634.776 817.007 616.889C852.346 568.753 852.346 503.247 817.007 455.11C803.876 437.224 795.262 416.428 791.9 394.495C782.85 335.469 736.531 289.15 677.505 280.1C655.571 276.737 634.776 268.124 616.889 254.992C568.752 219.654 503.247 219.654 455.11 254.992C437.223 268.124 416.428 276.737 394.495 280.1C335.469 289.15 289.149 335.469 280.1 394.495C276.737 416.428 268.123 437.224 254.992 455.11Z" stroke="#BEE64C"/>
<path d="M53.9539 504.789C30.1729 518.801 30.1729 553.199 53.9539 567.211C74.9462 579.581 78.593 608.448 61.3364 625.649C41.7873 645.136 50.3415 678.452 76.8602 686.111C100.269 692.871 110.98 719.924 98.5437 740.877C84.4549 764.613 101.026 794.755 128.616 795.578C152.971 796.304 170.073 819.844 163.238 843.231C155.495 869.725 179.041 894.8 205.969 888.735C229.739 883.382 252.159 901.929 251.354 926.281C250.443 953.868 279.486 972.299 304.059 959.729C325.751 948.632 352.079 961.021 357.356 984.808C363.334 1011.76 396.048 1022.38 416.723 1004.1C434.974 987.955 463.556 993.408 474.582 1015.14C487.074 1039.75 521.404 1041.91 536.882 1019.05C550.545 998.881 579.584 997.054 595.668 1015.36C613.889 1036.09 647.677 1029.64 656.985 1003.66C665.202 980.721 692.874 971.73 713.004 985.457C735.809 1001.01 766.933 986.363 769.486 958.879C771.74 934.618 796.307 919.027 819.219 927.318C845.175 936.709 871.678 914.784 867.317 887.528C863.466 863.469 883.384 842.258 907.638 844.59C935.114 847.232 955.332 819.404 944.329 794.089C934.617 771.743 948.634 746.245 972.706 742.472C999.975 738.198 1012.64 706.216 995.685 684.433C980.72 665.205 987.956 637.022 1010.33 627.381C1035.68 616.46 1039.99 582.334 1018.16 565.451C998.88 550.548 998.88 521.452 1018.16 506.549C1039.99 489.666 1035.68 455.54 1010.33 444.618C987.956 434.978 980.72 406.795 995.685 387.566C1012.64 365.783 999.975 333.802 972.706 329.527C948.634 325.754 934.617 300.257 944.329 277.911C955.332 252.596 935.114 224.768 907.638 227.41C883.384 229.742 863.466 208.531 867.316 184.472C871.678 157.216 845.175 135.291 819.219 144.682C796.307 152.973 771.74 137.382 769.486 113.121C766.932 85.6367 735.809 70.9911 713.004 86.5425C692.874 100.27 665.202 91.2788 656.985 68.3406C647.677 42.3551 613.889 35.9097 595.668 56.6438C579.584 74.9464 550.545 73.1194 536.882 52.9453C521.404 30.0911 487.074 32.2509 474.582 56.8648C463.556 78.5924 434.974 84.0445 416.723 67.9021C396.048 49.6151 363.334 60.2445 357.356 87.1917C352.079 110.979 325.751 123.368 304.059 112.271C279.486 99.7005 250.443 118.132 251.354 145.719C252.159 170.071 229.739 188.618 205.969 183.265C179.041 177.2 155.495 202.275 163.238 228.769C170.073 252.156 152.971 275.696 128.616 276.422C101.026 277.245 84.4548 307.387 98.5437 331.123C110.98 352.076 100.269 379.129 76.8602 385.889C50.3415 393.548 41.7873 426.864 61.3363 446.351C78.5929 463.552 74.9462 492.419 53.9539 504.789Z" stroke="#BEE64C"/>
<path d="M536 800.94C501.208 800.94 466.756 794.087 434.612 780.772C402.468 767.458 373.261 747.942 348.659 723.341C324.057 698.739 304.542 669.532 291.228 637.388C277.913 605.244 271.06 570.792 271.06 536C271.06 501.208 277.913 466.756 291.228 434.612C304.542 402.468 324.057 373.261 348.659 348.659C373.261 324.057 402.468 304.542 434.612 291.228C466.756 277.913 501.208 271.06 536 271.06L536 536L536 800.94Z" fill="url(#paint0_radial_171_4265)"/>
<defs>
<radialGradient id="paint0_radial_171_4265" cx="0" cy="0" r="1" gradientUnits="userSpaceOnUse" gradientTransform="translate(536 536) scale(264.94)">
<stop stop-color="#C5FF1F"/>
<stop offset="1" stop-color="#D9D9D9" stop-opacity="0"/>
</radialGradient>
</defs>
</svg>
