<svg width="287" height="41" viewBox="0 0 287 41" fill="none" xmlns="http://www.w3.org/2000/svg">
<path d="M11.8242 7.02368C17.9649 7.02368 22.9329 11.5304 22.9329 17.6579C22.9329 23.7854 17.8726 28.358 12.1536 28.358C9.46541 28.358 6.86944 27.5937 4.906 25.3799H4.66873V40.8634H0.570557V19.3578C0.570557 11.8466 4.89282 7.02368 11.8242 7.02368ZM11.7714 24.7606C15.8301 24.7606 18.6106 21.5453 18.6106 17.6579C18.6106 13.7706 15.896 10.6211 11.7714 10.6211C7.64686 10.6211 4.81383 13.7837 4.81383 17.6315C4.81383 21.4794 7.67322 24.7606 11.7714 24.7606Z" fill="#897AD6"/>
<path d="M26.7278 17.6842C26.7278 11.5435 31.867 7.02368 37.9155 7.02368C43.9639 7.02368 49.1031 11.5567 49.1031 17.6842C49.1031 23.8117 43.9639 28.3448 37.9155 28.3448C31.867 28.3448 26.7278 23.8117 26.7278 17.6842ZM37.9155 24.7606C42.0005 24.7606 44.7809 21.6111 44.7809 17.6842C44.7809 13.7573 42.0005 10.6079 37.9155 10.6079C33.8304 10.6079 31.0499 13.731 31.0499 17.6842C31.0499 21.6375 33.8304 24.7606 37.9155 24.7606Z" fill="#897AD6"/>
<path d="M64.2178 28.358C57.7872 28.358 52.9116 23.8645 52.9116 17.6974C52.9116 11.5303 57.6687 7.03687 64.0729 7.03687C68.9881 7.03687 73.5738 9.6987 74.7334 14.7588H70.5299C69.5021 12.0443 67.051 10.6343 64.1915 10.6343C59.8692 10.6343 57.2337 13.8496 57.2337 17.7634C57.2337 21.6771 59.9484 24.7737 64.2706 24.7737C67.0774 24.7737 69.6206 23.4824 70.6089 20.5438H74.852C73.3366 25.9202 68.9486 28.3712 64.2178 28.3712" fill="#897AD6"/>
<path d="M90.0193 25.4062L83.2988 11.3458H83.1803V27.9099H79.2402V7.4585H85.5259L92.1804 21.453H92.299L98.9669 7.4585H105.239V27.9099H101.299V11.3458H101.181L94.4601 25.4062H90.0193Z" fill="#897AD6"/>
<path d="M109.627 17.6842C109.627 11.5435 114.767 7.02368 120.815 7.02368C126.864 7.02368 132.003 11.5567 132.003 17.6842C132.003 23.8117 126.864 28.3448 120.815 28.3448C114.767 28.3448 109.627 23.8117 109.627 17.6842ZM120.815 24.7606C124.913 24.7606 127.681 21.6111 127.681 17.6842C127.681 13.7573 124.9 10.6079 120.815 10.6079C116.73 10.6079 113.95 13.731 113.95 17.6842C113.95 21.6375 116.73 24.7606 120.815 24.7606Z" fill="#897AD6"/>
<path d="M134.085 28.0944V23.8513H134.177C134.968 23.8513 135.93 23.4954 136.509 22.8234C137.274 21.98 137.643 20.4514 138.064 18.2376L138.644 14.9696C139.316 11.2008 140.66 7.36621 146.326 7.36621H154.299V27.9099H150.214V11.1613H147.025C143.836 11.1613 143.164 12.031 142.413 16.3928L141.886 19.4631C141.424 22.2699 140.713 24.6946 139.25 26.2364C138.143 27.4092 136.588 28.0812 134.52 28.0812H134.085V28.0944Z" fill="#897AD6"/>
<path d="M158.845 17.6842C158.845 11.5435 163.985 7.02368 170.033 7.02368C176.082 7.02368 181.221 11.5567 181.221 17.6842C181.221 23.8117 176.082 28.3448 170.033 28.3448C163.985 28.3448 158.845 23.8117 158.845 17.6842ZM170.033 24.7606C174.118 24.7606 176.898 21.6111 176.898 17.6842C176.898 13.7573 174.118 10.6079 170.033 10.6079C165.948 10.6079 163.167 13.731 163.167 17.6842C163.167 21.6375 165.948 24.7606 170.033 24.7606Z" fill="#897AD6"/>
<path d="M185.951 32.8778H182.011V24.1147H184.673C185.846 22.797 186.452 20.8468 187.005 18.4748L187.888 14.6797C188.731 11.0295 190.313 7.37939 195.373 7.37939H203.319V24.1279H206.271V32.891H202.331V27.923H185.964V32.891L185.951 32.8778ZM199.273 24.1938V11.1086H195.439C192.948 11.1086 192.105 13.0984 191.604 15.1936L190.695 19.1337C190.194 21.3211 189.443 23.1396 188.679 23.8907V24.1807H199.26L199.273 24.1938Z" fill="#897AD6"/>
<path d="M220.555 28.358C214.033 28.358 209.302 23.8644 209.302 17.6973C209.302 11.5303 214.059 7.03681 220.41 7.03681C225.326 7.03681 231.229 10.2521 231.229 18.0268V18.8702H213.4C213.835 22.2831 216.497 24.7736 220.529 24.7736C222.927 24.7736 225.787 23.8908 226.577 21.8219H230.781C229.49 26.3286 224.733 28.3712 220.555 28.3712M213.453 0H217.696V4.24319H213.453V0ZM226.96 15.7471C226.314 12.6504 223.916 10.5684 220.358 10.5684C216.8 10.5684 214.336 12.7822 213.584 15.7471H226.973H226.96ZM222.664 0H226.907V4.24319H222.664V0Z" fill="#897AD6"/>
<path d="M250.508 7.4585V15.589H253.934L258.757 7.4585H263.251L257.255 17.223L263.751 27.9099H259.165L253.987 19.2918H250.508V27.9099H246.647V19.2918H243.181L238.002 27.9099H233.417L239.9 17.223L233.917 7.4585H238.411L243.234 15.589H246.647V7.4585H250.508Z" fill="#897AD6"/>
<path d="M266.61 18.712L266.558 7.4585H270.643L270.669 13.2697H270.788C272.514 11.1613 274.701 10.1467 277.337 10.1467C282.358 10.1467 286.429 13.8891 286.429 19.1205C286.429 24.352 282.279 28.358 276.586 28.358C270.893 28.358 266.65 24.2993 266.624 18.712M276.507 24.7605C279.748 24.7605 282.12 22.4808 282.12 19.2918C282.12 16.1029 279.748 13.7705 276.507 13.7705C273.265 13.7705 270.92 16.1029 270.92 19.2918C270.92 22.4808 273.291 24.7605 276.507 24.7605Z" fill="#897AD6"/>
</svg>
