<?xml version="1.0" encoding="utf-8"?><svg xmlns="http://www.w3.org/2000/svg" xmlns:xlink="http://www.w3.org/1999/xlink"><symbol viewBox="0 0 22 24" id="basket" xmlns="http://www.w3.org/2000/svg"><g clip-path="url(#aa)"><path d="M10.363 18.443a2.046 2.046 0 0 0-2.045 2.042 2.046 2.046 0 0 0 4.09 0 2.046 2.046 0 0 0-2.045-2.042Zm6.134 0a2.046 2.046 0 0 0-2.045 2.042 2.046 2.046 0 0 0 4.089 0 2.046 2.046 0 0 0-2.044-2.042Zm3.978-8.199L7.413 6.891a.614.614 0 0 0-.75.73L8.67 16.4h-.786L5.482 5.895a.613.613 0 0 0-.474-.464l-4.27-.882A.614.614 0 0 0 .489 5.75l3.885.802L6.797 17.15a.613.613 0 0 0 .598.477h12.07a.615.615 0 0 0 .607-.53l.858-6.175a.613.613 0 0 0-.455-.678Zm-8.14 3.91a.613.613 0 0 1-1.227 0v-2.696a.613.613 0 0 1 1.227 0v2.696Zm2.625 0a.613.613 0 0 1-1.227 0v-1.88a.613.613 0 0 1 1.227 0v1.88Zm2.625 0a.613.613 0 0 1-1.227 0v-1.226a.613.613 0 0 1 1.227 0v1.226Z"/></g><path fill-rule="evenodd" clip-rule="evenodd" d="M16.268 4.568a2.996 2.996 0 0 0-1.693-.523c-.627 0-1.21.193-1.693.523-.28-.843-.492-1.752-.492-2.383C12.39.98 13.37 0 14.575 0s2.185.98 2.185 2.185c0 .631-.212 1.54-.492 2.383Zm-4.722 2.274.024.006v-.011l-.024.005Zm4.972 1.217c-1.333-.33-2.766-.681-4.129-1.013a2.185 2.185 0 1 1 4.129 1.013Zm4.436 1.103c-.866-.217-2.155-.538-3.618-.9a2.995 2.995 0 0 0 .243-1.425c.87.18 1.762.45 2.308.765.596.344.969.928 1.067 1.56ZM9.869 6.439c-.36-.086-.706-.167-1.03-.243a2.19 2.19 0 0 1-.376-2.667 2.188 2.188 0 0 1 3.147-.7c.098.738.338 1.599.61 2.353a3.01 3.01 0 0 0-.449.774c-.628.113-1.305.278-1.902.483Zm10.124.075a3.43 3.43 0 0 1-.217.114c-.696-.295-1.587-.526-2.397-.672a3.01 3.01 0 0 0-.449-.774c.262-.727.494-1.553.599-2.273.095-.067.189-.128.278-.18a2.188 2.188 0 0 1 2.986.8 2.188 2.188 0 0 1-.8 2.985Z"/><defs><clipPath id="aa"><path transform="translate(0 3.064)" d="M0 0h20.936v20.936H0z"/></clipPath></defs></symbol><symbol viewBox="0 0 344.96 344.96" id="check" xmlns="http://www.w3.org/2000/svg"><g data-name="Слой 2"><path class="bcls-1" d="m321.85 86.24-40-23.11-23.1-40H212.5L172.48 0l-40 23.11H86.24l-23.11 40-40 23.1v46.21L0 172.48l23.11 40v46.21l40 23.11 23.11 40h46.21l40 23.1 40-23.11h46.21l23.11-40 40-23.11V212.5l23.11-40-23.11-40V86.24ZM156.91 243.07a16.79 16.79 0 0 1-23.34 0l-50.45-50.44a16.19 16.19 0 0 1 0-22.89l13.35-13.35a16.19 16.19 0 0 1 22.89 0l25.87 25.87 80.34-80.35a16.19 16.19 0 0 1 22.89 0l13.35 13.35a16.19 16.19 0 0 1 0 22.89Z" data-name="Capa 1"/></g></symbol><symbol viewBox="0 0 24 24" id="fb" xmlns="http://www.w3.org/2000/svg"><path d="M13.397 20.997v-8.196h2.765l.411-3.209h-3.176V7.548c0-.926.258-1.56 1.587-1.56h1.684v-2.86A22.108 22.108 0 0 0 14.201 3c-2.444 0-4.122 1.492-4.122 4.231v2.355H7.332v3.21h2.753v8.201h3.312Z"/></symbol><symbol viewBox="0 0 24 24" id="instagram" xmlns="http://www.w3.org/2000/svg"><path d="M11.999 7.377a4.624 4.624 0 1 0 0 9.248 4.624 4.624 0 0 0 0-9.248Zm0 7.627a3.004 3.004 0 1 1 0-6.008 3.004 3.004 0 0 1 0 6.008Zm4.807-6.719a1.078 1.078 0 1 0 0-2.156 1.078 1.078 0 0 0 0 2.156Z"/><path d="M20.533 6.11A4.605 4.605 0 0 0 17.9 3.48a6.607 6.607 0 0 0-2.186-.42c-.963-.042-1.268-.054-3.71-.054s-2.755 0-3.71.054a6.554 6.554 0 0 0-2.184.42 4.6 4.6 0 0 0-2.633 2.63 6.585 6.585 0 0 0-.419 2.186c-.043.962-.056 1.267-.056 3.71 0 2.442 0 2.753.056 3.71.015.748.156 1.486.419 2.187a4.61 4.61 0 0 0 2.634 2.632 6.583 6.583 0 0 0 2.185.45c.963.042 1.268.055 3.71.055s2.755 0 3.71-.055a6.616 6.616 0 0 0 2.186-.42 4.613 4.613 0 0 0 2.633-2.632c.263-.7.404-1.438.419-2.186.043-.962.056-1.267.056-3.71s0-2.753-.056-3.71a6.583 6.583 0 0 0-.421-2.217Zm-1.218 9.533a5.046 5.046 0 0 1-.311 1.688 2.987 2.987 0 0 1-1.712 1.71c-.535.2-1.1.305-1.67.312-.95.044-1.218.055-3.654.055-2.438 0-2.687 0-3.655-.055a4.961 4.961 0 0 1-1.67-.311 2.984 2.984 0 0 1-1.718-1.711 5.08 5.08 0 0 1-.311-1.67c-.043-.95-.053-1.217-.053-3.653 0-2.437 0-2.686.053-3.655a5.038 5.038 0 0 1 .311-1.687c.305-.79.93-1.41 1.719-1.712a5.01 5.01 0 0 1 1.669-.311c.95-.043 1.218-.055 3.655-.055s2.687 0 3.654.055a4.96 4.96 0 0 1 1.67.31 2.99 2.99 0 0 1 1.712 1.713 5.06 5.06 0 0 1 .311 1.669c.043.95.054 1.218.054 3.655 0 2.436 0 2.698-.043 3.654h-.011v-.001Z"/></symbol><symbol viewBox="0 0 147 22" id="sContact-logo" xmlns="http://www.w3.org/2000/svg"><path d="M5.786 3.611c3.158 0 5.712 2.318 5.712 5.468s-2.602 5.502-5.542 5.502c-1.383 0-2.717-.393-3.727-1.531h-.122v7.96H0V9.954c0-3.862 2.222-6.342 5.786-6.342Zm-.027 9.12c2.087 0 3.517-1.653 3.517-3.652S7.88 5.461 5.759 5.461c-2.12 0-3.577 1.626-3.577 3.605 0 1.978 1.47 3.665 3.577 3.665Zm7.691-3.638c0-3.158 2.643-5.482 5.753-5.482 3.11 0 5.752 2.331 5.752 5.482 0 3.15-2.642 5.481-5.752 5.481s-5.752-2.33-5.752-5.481Zm5.753 3.638c2.1 0 3.53-1.62 3.53-3.638 0-2.02-1.43-3.639-3.53-3.639-2.1 0-3.53 1.606-3.53 3.639 0 2.032 1.43 3.638 3.53 3.638Zm13.524 1.85c-3.306 0-5.813-2.31-5.813-5.481s2.446-5.482 5.739-5.482c2.527 0 4.885 1.369 5.481 3.97h-2.161c-.529-1.395-1.79-2.12-3.26-2.12-2.222 0-3.577 1.653-3.577 3.666 0 2.012 1.396 3.604 3.618 3.604 1.444 0 2.751-.664 3.26-2.175h2.181c-.78 2.765-3.035 4.025-5.468 4.025m13.265-1.524-3.455-7.23h-.061v8.517H40.45V3.836h3.232l3.421 7.195h.061l3.429-7.195h3.225V14.35h-2.026V5.834h-.06l-3.456 7.23h-2.284Zm10.083-3.971c0-3.158 2.643-5.482 5.753-5.482 3.11 0 5.752 2.331 5.752 5.482 0 3.15-2.642 5.481-5.752 5.481s-5.753-2.33-5.753-5.481Zm5.753 3.638c2.107 0 3.53-1.62 3.53-3.638 0-2.02-1.43-3.639-3.53-3.639-2.1 0-3.53 1.606-3.53 3.639 0 2.032 1.43 3.638 3.53 3.638Zm6.822 1.715v-2.182h.048c.406 0 .9-.183 1.2-.528.392-.434.582-1.22.799-2.358l.298-1.68c.345-1.938 1.036-3.91 3.95-3.91h4.099v10.563h-2.1V5.739h-1.64c-1.64 0-1.985.447-2.371 2.69l-.272 1.579c-.237 1.443-.603 2.69-1.355 3.483-.569.603-1.368.948-2.432.948h-.224v.007Zm12.732-5.353c0-3.158 2.642-5.482 5.752-5.482s5.752 2.331 5.752 5.482c0 3.15-2.642 5.481-5.752 5.481s-5.752-2.33-5.752-5.481Zm5.752 3.638c2.1 0 3.53-1.62 3.53-3.638 0-2.02-1.43-3.639-3.53-3.639-2.1 0-3.53 1.606-3.53 3.639 0 2.032 1.43 3.638 3.53 3.638Zm8.185 4.174h-2.026V12.4h1.369c.603-.678.914-1.68 1.199-2.9l.454-1.952c.433-1.876 1.246-3.753 3.848-3.753h4.086v8.611h1.518v4.506h-2.026v-2.554h-8.415v2.554l-.007-.007Zm6.85-4.465V5.712h-1.972c-1.28 0-1.714 1.023-1.972 2.1l-.467 2.027c-.257 1.124-.644 2.06-1.037 2.445v.15h5.441l.007.006Zm10.942 2.14c-3.354 0-5.787-2.31-5.787-5.48 0-3.171 2.446-5.482 5.712-5.482 2.527 0 5.563 1.653 5.563 5.65v.434h-9.168c.224 1.755 1.593 3.036 3.666 3.036 1.233 0 2.703-.454 3.11-1.518h2.161c-.664 2.317-3.11 3.368-5.257 3.368M109.459 0h2.181v2.182h-2.181V0Zm6.944 8.097c-.332-1.593-1.565-2.663-3.394-2.663-1.83 0-3.097 1.138-3.483 2.663h6.884-.007ZM114.195 0h2.181v2.182h-2.181V0Zm14.317 3.836v4.18h1.761l2.48-4.18h2.311l-3.083 5.02 3.34 5.495h-2.358l-2.662-4.43h-1.789v4.43h-1.985v-4.43h-1.782l-2.663 4.43h-2.358l3.334-5.495-3.076-5.02h2.31l2.48 4.18h1.755v-4.18h1.985Zm8.278 5.786-.027-5.786h2.101l.013 2.988h.061c.888-1.084 2.013-1.606 3.368-1.606 2.581 0 4.675 1.924 4.675 4.614s-2.134 4.75-5.061 4.75-5.109-2.087-5.123-4.96m5.082 3.11c1.667 0 2.886-1.172 2.886-2.812s-1.219-2.839-2.886-2.839-2.873 1.2-2.873 2.84c0 1.639 1.22 2.81 2.873 2.81Z"/></symbol><symbol viewBox="0 0 23 20" id="telegram" xmlns="http://www.w3.org/2000/svg"><path d="m.402 9.498 5.242 1.956 2.029 6.525c.13.418.64.573.98.296l2.922-2.383a.872.872 0 0 1 1.063-.03l5.27 3.827a.618.618 0 0 0 .968-.373L22.736.744a.618.618 0 0 0-.827-.702L.396 8.342a.618.618 0 0 0 .006 1.156Zm6.944.915 10.245-6.31c.184-.113.373.136.215.282l-8.455 7.86a1.752 1.752 0 0 0-.543 1.049l-.288 2.134c-.038.285-.438.313-.517.037l-1.108-3.892a1.032 1.032 0 0 1 .45-1.16Z"/></symbol><symbol viewBox="0 0 16 16" id="viber" xmlns="http://www.w3.org/2000/svg"><path d="M8 1.335c-1.071.013-3.374.19-4.662 1.37-.958.948-1.292 2.35-1.331 4.084-.033 1.728-.072 4.973 3.058 5.856v1.346s-.02.538.337.648c.438.14.688-.275 1.105-.72l.778-.879c2.142.178 3.782-.232 3.97-.293.435-.139 2.883-.451 3.283-3.696.41-3.351-.2-5.463-1.301-6.418h-.007c-.332-.306-1.668-1.279-4.652-1.29 0 0-.222-.014-.578-.008Zm.037.942a7.02 7.02 0 0 1 .488.011c2.527.007 3.732.767 4.017 1.023.927.794 1.405 2.697 1.055 5.495-.332 2.713-2.317 2.885-2.685 3.002-.156.05-1.6.406-3.42.289 0 0-1.356 1.634-1.78 2.055-.067.074-.146.095-.196.085-.071-.018-.093-.107-.089-.229l.013-2.233c-2.655-.733-2.498-3.5-2.47-4.946.033-1.446.304-2.628 1.113-3.43 1.088-.982 3.043-1.115 3.953-1.122Zm.2 1.446a.166.166 0 1 0 0 .332 3.136 3.136 0 0 1 2.242.883c.606.588.9 1.378.912 2.411 0 .092.074.167.167.167V7.51a.167.167 0 0 0 .168-.165 3.588 3.588 0 0 0-1.009-2.646c-.66-.645-1.496-.977-2.48-.977Zm-2.198.382a.523.523 0 0 0-.342.067H5.69a2.61 2.61 0 0 0-.637.523 1.003 1.003 0 0 0-.256.525.71.71 0 0 0 .026.302l.01.006c.172.504.396.988.67 1.444a8.48 8.48 0 0 0 1.29 1.762l.015.022.024.017.015.018.017.015c.532.505 1.127.94 1.769 1.295.734.4 1.18.588 1.447.667v.004c.078.024.15.034.221.034.228-.016.444-.109.613-.262a2.53 2.53 0 0 0 .517-.638v-.004c.128-.241.085-.469-.1-.623-.37-.323-.77-.61-1.195-.857-.285-.155-.574-.061-.69.095l-.25.315c-.129.156-.361.134-.361.134l-.007.004C7.093 8.527 6.63 6.772 6.63 6.772s-.022-.239.139-.36l.312-.252c.15-.122.254-.41.094-.695a7.498 7.498 0 0 0-.856-1.194.475.475 0 0 0-.28-.167Zm2.486.495c-.221 0-.221.334.003.334A2.098 2.098 0 0 1 10 5.572 1.94 1.94 0 0 1 10.5 7a.168.168 0 0 0 .167.165l.007.009a.169.169 0 0 0 .167-.167c.015-.662-.191-1.218-.595-1.663C9.84 4.9 9.273 4.65 8.549 4.6h-.024Zm.274.898c-.228-.006-.236.335-.01.341.55.029.816.306.851.877a.166.166 0 0 0 .165.163h.007a.168.168 0 0 0 .16-.178c-.039-.744-.445-1.164-1.166-1.202H8.8Z"/></symbol><symbol viewBox="0 0 24 24" id="vk" xmlns="http://www.w3.org/2000/svg"><path d="M21.579 6.855c.14-.465 0-.806-.662-.806h-2.193c-.558 0-.813.295-.953.619 0 0-1.115 2.719-2.695 4.482-.51.513-.743.675-1.021.675-.139 0-.341-.162-.341-.627V6.855c0-.558-.161-.806-.626-.806H9.642c-.348 0-.558.258-.558.504 0 .528.79.65.871 2.138v3.228c0 .707-.127.836-.407.836-.743 0-2.551-2.73-3.624-5.853-.209-.607-.42-.852-.98-.852H2.752c-.627 0-.752.295-.752.619 0 .582.743 3.462 3.461 7.27 1.812 2.602 4.363 4.012 6.687 4.012 1.393 0 1.565-.313 1.565-.853v-1.966c0-.626.133-.752.574-.752.324 0 .882.164 2.183 1.417 1.486 1.486 1.732 2.153 2.567 2.153h2.192c.626 0 .939-.313.759-.931-.197-.615-.907-1.51-1.849-2.57-.512-.603-1.277-1.253-1.51-1.578-.325-.42-.231-.604 0-.976.001 0 2.672-3.761 2.95-5.04Z"/></symbol><symbol viewBox="0 0 16 16" id="whatsapp" xmlns="http://www.w3.org/2000/svg"><path fill-rule="evenodd" clip-rule="evenodd" d="M12.269 3.755A5.947 5.947 0 0 0 8.035 2 5.994 5.994 0 0 0 2.05 7.985a5.98 5.98 0 0 0 .799 2.992L2 14.077l3.173-.832c.877.477 1.86.728 2.86.728h.002a5.993 5.993 0 0 0 5.533-8.276 5.953 5.953 0 0 0-1.3-1.942Zm-4.234 9.208h-.002c-.89 0-1.765-.24-2.532-.694l-.181-.108-1.883.494.502-1.835-.118-.188a4.965 4.965 0 0 1-.76-2.647 4.982 4.982 0 0 1 6.88-4.597c.604.25 1.152.618 1.613 1.081a4.946 4.946 0 0 1 1.455 3.52 4.982 4.982 0 0 1-4.974 4.974Zm2.729-3.726c-.15-.075-.885-.436-1.022-.486-.137-.05-.236-.075-.336.074-.1.15-.387.486-.474.586-.087.1-.175.112-.324.038-.15-.075-.631-.233-1.203-.742a4.505 4.505 0 0 1-.832-1.036c-.087-.15-.009-.231.066-.306.068-.066.15-.174.224-.262.075-.087.1-.149.15-.249.05-.1.025-.187-.013-.262-.037-.075-.337-.811-.461-1.11-.121-.29-.244-.252-.336-.256a6.418 6.418 0 0 0-.286-.005.55.55 0 0 0-.4.186c-.137.15-.523.512-.523 1.248s.536 1.447.61 1.547c.075.1 1.055 1.61 2.555 2.258.358.154.636.246.853.315.358.114.684.098.942.06.287-.043.885-.362 1.01-.711.124-.35.124-.649.087-.711-.038-.063-.138-.101-.287-.176Z"/></symbol></svg>