<?xml version="1.0" encoding="utf-8"?><svg xmlns="http://www.w3.org/2000/svg" xmlns:xlink="http://www.w3.org/1999/xlink"><symbol viewBox="0 0 19 20" id="arrow-left" xmlns="http://www.w3.org/2000/svg"><path d="M19 10.195H3m0 0L11.15 2M3 10.195l8.15 8.195"/></symbol><symbol viewBox="0 0 19 20" id="arrow-right" xmlns="http://www.w3.org/2000/svg"><path d="M0 10.195h16m0 0L7.85 2M16 10.195 7.85 18.39"/></symbol><symbol viewBox="0 0 22 24" id="basket" xmlns="http://www.w3.org/2000/svg"><g clip-path="url(#ca)"><path d="M10.363 18.443a2.046 2.046 0 0 0-2.045 2.042 2.046 2.046 0 0 0 4.09 0 2.046 2.046 0 0 0-2.045-2.042Zm6.134 0a2.046 2.046 0 0 0-2.045 2.042 2.046 2.046 0 0 0 4.089 0 2.046 2.046 0 0 0-2.044-2.042Zm3.978-8.199L7.413 6.891a.614.614 0 0 0-.75.73L8.67 16.4h-.786L5.482 5.895a.613.613 0 0 0-.474-.464l-4.27-.882A.614.614 0 0 0 .489 5.75l3.885.802L6.797 17.15a.613.613 0 0 0 .598.477h12.07a.615.615 0 0 0 .607-.53l.858-6.175a.613.613 0 0 0-.455-.678Zm-8.14 3.91a.613.613 0 0 1-1.227 0v-2.696a.613.613 0 0 1 1.227 0v2.696Zm2.625 0a.613.613 0 0 1-1.227 0v-1.88a.613.613 0 0 1 1.227 0v1.88Zm2.625 0a.613.613 0 0 1-1.227 0v-1.226a.613.613 0 0 1 1.227 0v1.226Z"/></g><path fill-rule="evenodd" clip-rule="evenodd" d="M16.268 4.568a2.996 2.996 0 0 0-1.693-.523c-.627 0-1.21.193-1.693.523-.28-.843-.492-1.752-.492-2.383C12.39.98 13.37 0 14.575 0s2.185.98 2.185 2.185c0 .631-.212 1.54-.492 2.383Zm-4.722 2.274.024.006v-.011l-.024.005Zm4.972 1.217c-1.333-.33-2.766-.681-4.129-1.013a2.185 2.185 0 1 1 4.129 1.013Zm4.436 1.103c-.866-.217-2.155-.538-3.618-.9a2.995 2.995 0 0 0 .243-1.425c.87.18 1.762.45 2.308.765.596.344.969.928 1.067 1.56ZM9.869 6.439c-.36-.086-.706-.167-1.03-.243a2.19 2.19 0 0 1-.376-2.667 2.188 2.188 0 0 1 3.147-.7c.098.738.338 1.599.61 2.353a3.01 3.01 0 0 0-.449.774c-.628.113-1.305.278-1.902.483Zm10.124.075a3.43 3.43 0 0 1-.217.114c-.696-.295-1.587-.526-2.397-.672a3.01 3.01 0 0 0-.449-.774c.262-.727.494-1.553.599-2.273.095-.067.189-.128.278-.18a2.188 2.188 0 0 1 2.986.8 2.188 2.188 0 0 1-.8 2.985Z"/><defs><clipPath id="ca"><path transform="translate(0 3.064)" d="M0 0h20.936v20.936H0z"/></clipPath></defs></symbol><symbol viewBox="0 0 24 25" id="btn-back" xmlns="http://www.w3.org/2000/svg"><path fill-rule="evenodd" clip-rule="evenodd" d="m12.733 3-9.554 9.605 9.554 9.606 2.836-2.82-4.759-4.785H22v-4H10.81l4.759-4.785L12.733 3Z"/></symbol><symbol viewBox="0 0 344.96 344.96" id="check" xmlns="http://www.w3.org/2000/svg"><g data-name="Слой 2"><path class="ecls-1" d="m321.85 86.24-40-23.11-23.1-40H212.5L172.48 0l-40 23.11H86.24l-23.11 40-40 23.1v46.21L0 172.48l23.11 40v46.21l40 23.11 23.11 40h46.21l40 23.1 40-23.11h46.21l23.11-40 40-23.11V212.5l23.11-40-23.11-40V86.24ZM156.91 243.07a16.79 16.79 0 0 1-23.34 0l-50.45-50.44a16.19 16.19 0 0 1 0-22.89l13.35-13.35a16.19 16.19 0 0 1 22.89 0l25.87 25.87 80.34-80.35a16.19 16.19 0 0 1 22.89 0l13.35 13.35a16.19 16.19 0 0 1 0 22.89Z" data-name="Capa 1"/></g></symbol><symbol viewBox="0 0 18 11" id="chevron-down" xmlns="http://www.w3.org/2000/svg"><path d="m1 .89 8 8 8-8"/></symbol><symbol viewBox="0 0 40 40" id="coin" xmlns="http://www.w3.org/2000/svg"><g clip-path="url(#ga)"><path d="M1.172 5.482h.71v1.966a1.172 1.172 0 0 0 2.345 0V5.482h.71a1.172 1.172 0 0 0 0-2.344h-.71V1.172a1.172 1.172 0 0 0-2.344 0v1.966h-.711a1.172 1.172 0 0 0 0 2.344Zm37.656 29.036h-.71v-1.966a1.172 1.172 0 0 0-2.345 0v1.966h-.71a1.172 1.172 0 0 0 0 2.344h.71v1.966a1.172 1.172 0 0 0 2.344 0v-1.966h.711a1.172 1.172 0 0 0 0-2.344ZM5.188 16.234c0-1.71.233-3.368.668-4.942C2.28 14.272 0 18.757 0 23.766 0 32.717 7.283 40 16.234 40c5.009 0 9.494-2.28 12.474-5.856a18.53 18.53 0 0 1-4.942.669c-10.244 0-18.578-8.335-18.578-18.579Zm15.21.001 3.363-3.363 3.363 3.363-3.363 3.363-3.363-3.363Z"/><path d="M23.766 32.469C32.717 32.469 40 25.186 40 16.234 40 7.283 32.717 0 23.766 0 14.814 0 7.53 7.283 7.53 16.234c0 8.952 7.283 16.235 16.235 16.235Z"/><path fill-rule="evenodd" clip-rule="evenodd" d="M20.138 22.89h-2.222v-1.152h-1.25v-1.209h1.25V10.197h2.055l.088 1.534h.03c.38-.486.944-.895 1.69-1.23.755-.334 1.636-.501 2.646-.501 1.684 0 3.035.433 4.05 1.298 1.017.859 1.525 1.957 1.525 3.294v.314c0 1.35-.508 2.459-1.524 3.324-1.01.859-2.357 1.288-4.041 1.288-1.003 0-1.865-.141-2.586-.423-.715-.288-1.285-.675-1.711-1.16v2.594h4.584v1.209h-4.584v1.152Zm0-8.937v1.602c.275.512.73.96 1.366 1.348.643.38 1.416.57 2.321.57 1.337 0 2.317-.243 2.94-.728.63-.485.944-1.088.944-1.81v-.363c0-.72-.315-1.32-.944-1.8-.623-.484-1.603-.727-2.94-.727-.905 0-1.675.194-2.31.58-.63.38-1.089.823-1.377 1.328Z"/></g><defs><clipPath id="ga"><path d="M0 0h40v40H0z"/></clipPath></defs></symbol><symbol viewBox="0 0 94 32" id="curved-arrow-1" xmlns="http://www.w3.org/2000/svg"><path d="m90 31 3.362-11.047-11.248 2.612L90 31ZM1 31l1 .001a2.065 2.065 0 0 1 .001-.063l.009-.226c.01-.202.03-.505.071-.896.083-.78.25-1.907.585-3.264a28.07 28.07 0 0 1 4.7-9.956C12.702 9.4 23.498 2 45.5 2V0C23.002 0 11.548 7.6 5.76 15.404A30.07 30.07 0 0 0 .724 26.073a26.452 26.452 0 0 0-.633 3.533 18.144 18.144 0 0 0-.09 1.284 6.345 6.345 0 0 0-.002.108C0 31 0 31 1 31ZM45.5 2c14.147 0 23.651 3.062 30.042 7.139 6.386 4.073 9.734 9.205 11.498 13.475l1.848-.764c-1.893-4.585-5.484-10.069-12.27-14.397C69.836 3.127 59.936 0 45.5 0v2Z"/></symbol><symbol viewBox="0 0 95 33" id="curved-arrow-2" xmlns="http://www.w3.org/2000/svg"><path d="m91 1 3.675 16.926-16.496-5.28L91 1ZM2 1C3.5 1 3.5.999 3.5.998V.997a.959.959 0 0 0 0 .053l.009.213c.01.193.03.488.07.868.08.761.243 1.865.572 3.197a27.57 27.57 0 0 0 4.616 9.778C13.991 22.15 24.622 29.5 46.5 29.5v3c-22.622 0-34.24-7.65-40.142-15.606A30.57 30.57 0 0 1 1.239 6.047a26.953 26.953 0 0 1-.644-3.6 18.648 18.648 0 0 1-.093-1.325 6.841 6.841 0 0 1-.002-.12S.5 1 2 1Zm44.5 28.5c23.95 0 34.44-8.807 39.106-16.428l2.559 1.567C82.86 23.302 71.303 32.5 46.5 32.5v-3Z"/></symbol><symbol viewBox="0 0 95 33" id="curved-arrow-3" xmlns="http://www.w3.org/2000/svg"><path d="m91 32 3.04-22.893-21.347 8.815L91 32ZM2 32c2 0 2 .001 2 .003v.003-.044a15.166 15.166 0 0 1 .075-1.04 23.46 23.46 0 0 1 .562-3.13 27.07 27.07 0 0 1 4.532-9.6C14.279 11.3 24.746 4 46.5 4V0C23.754 0 11.97 7.7 5.956 15.809A31.07 31.07 0 0 0 .754 26.833 27.453 27.453 0 0 0 .098 30.5a19.153 19.153 0 0 0-.096 1.366 7.326 7.326 0 0 0-.002.13C0 31.999 0 32 2 32ZM46.5 4c20.18 0 30.636 6.285 36.112 12.664l3.035-2.605C79.249 6.606 67.574 0 46.5 0v4Z"/></symbol><symbol viewBox="0 0 24 24" id="fb" xmlns="http://www.w3.org/2000/svg"><path d="M13.397 20.997v-8.196h2.765l.411-3.209h-3.176V7.548c0-.926.258-1.56 1.587-1.56h1.684v-2.86A22.108 22.108 0 0 0 14.201 3c-2.444 0-4.122 1.492-4.122 4.231v2.355H7.332v3.21h2.753v8.201h3.312Z"/></symbol><symbol viewBox="0 0 24 24" id="instagram" xmlns="http://www.w3.org/2000/svg"><path d="M11.999 7.377a4.624 4.624 0 1 0 0 9.248 4.624 4.624 0 0 0 0-9.248Zm0 7.627a3.004 3.004 0 1 1 0-6.008 3.004 3.004 0 0 1 0 6.008Zm4.807-6.719a1.078 1.078 0 1 0 0-2.156 1.078 1.078 0 0 0 0 2.156Z"/><path d="M20.533 6.11A4.605 4.605 0 0 0 17.9 3.48a6.607 6.607 0 0 0-2.186-.42c-.963-.042-1.268-.054-3.71-.054s-2.755 0-3.71.054a6.554 6.554 0 0 0-2.184.42 4.6 4.6 0 0 0-2.633 2.63 6.585 6.585 0 0 0-.419 2.186c-.043.962-.056 1.267-.056 3.71 0 2.442 0 2.753.056 3.71.015.748.156 1.486.419 2.187a4.61 4.61 0 0 0 2.634 2.632 6.583 6.583 0 0 0 2.185.45c.963.042 1.268.055 3.71.055s2.755 0 3.71-.055a6.616 6.616 0 0 0 2.186-.42 4.613 4.613 0 0 0 2.633-2.632c.263-.7.404-1.438.419-2.186.043-.962.056-1.267.056-3.71s0-2.753-.056-3.71a6.583 6.583 0 0 0-.421-2.217Zm-1.218 9.533a5.046 5.046 0 0 1-.311 1.688 2.987 2.987 0 0 1-1.712 1.71c-.535.2-1.1.305-1.67.312-.95.044-1.218.055-3.654.055-2.438 0-2.687 0-3.655-.055a4.961 4.961 0 0 1-1.67-.311 2.984 2.984 0 0 1-1.718-1.711 5.08 5.08 0 0 1-.311-1.67c-.043-.95-.053-1.217-.053-3.653 0-2.437 0-2.686.053-3.655a5.038 5.038 0 0 1 .311-1.687c.305-.79.93-1.41 1.719-1.712a5.01 5.01 0 0 1 1.669-.311c.95-.043 1.218-.055 3.655-.055s2.687 0 3.654.055a4.96 4.96 0 0 1 1.67.31 2.99 2.99 0 0 1 1.712 1.713 5.06 5.06 0 0 1 .311 1.669c.043.95.054 1.218.054 3.655 0 2.436 0 2.698-.043 3.654h-.011v-.001Z"/></symbol><symbol viewBox="0 0 40 40" id="luggage" xmlns="http://www.w3.org/2000/svg"><g clip-path="url(#ma)"><path d="M25.156 3.047c0-.388.316-.703.703-.703h4.063c.388 0 .703.315.703.703v4.189h2.344V3.047A3.05 3.05 0 0 0 29.922 0h-4.063a3.05 3.05 0 0 0-3.047 3.047v4.189h2.344V3.047ZM14.245 37.656a5.046 5.046 0 0 1-.807-2.734v-17.57H2.733A2.737 2.737 0 0 0 0 20.088v14.835a2.738 2.738 0 0 0 2.344 2.706v1.2a1.172 1.172 0 0 0 2.344 0v-1.172h9.557ZM4.688 21.65a1.172 1.172 0 0 1 2.343 0v11.71a1.172 1.172 0 0 1-2.343 0V21.65Zm6.25-8.486c0-.387.315-.703.703-.703h1.796v-.147c0-.787.18-1.532.5-2.197h-2.296a3.05 3.05 0 0 0-3.047 3.047v1.845h2.344v-1.845ZM37.266 9.58h-18.75a2.738 2.738 0 0 0-2.735 2.734v22.608a2.738 2.738 0 0 0 2.344 2.706v1.2a1.172 1.172 0 0 0 2.344 0v-1.172h14.843v1.172a1.172 1.172 0 0 0 2.344 0v-1.2A2.738 2.738 0 0 0 40 34.922V12.314a2.737 2.737 0 0 0-2.734-2.735ZM22.813 33.36a1.172 1.172 0 0 1-2.344 0V13.875a1.172 1.172 0 0 1 2.343 0V33.36Zm11.327 1.17a1.172 1.172 0 0 1-1.172-1.172V13.876a1.172 1.172 0 0 1 2.343 0V33.36a1.17 1.17 0 0 1-1.171 1.172Z"/></g><defs><clipPath id="ma"><path d="M0 0h40v40H0z"/></clipPath></defs></symbol><symbol viewBox="0 0 16 16" id="presentation" xmlns="http://www.w3.org/2000/svg"><g clip-path="url(#na)"><path d="M14.528 1h-7.03c-.813 0-1.473.66-1.473 1.473v3.462l1.148.571.574-1.147a1.406 1.406 0 1 1 2.516 1.258L9.24 8.66c.027.27.003.544-.073.808h.675l-1.78 4.894a.469.469 0 1 0 .88.32L10.84 9.47h.329l1.915 5.216a.469.469 0 0 0 .88-.323L12.167 9.47h2.362c.813 0 1.472-.66 1.472-1.473V2.473A1.474 1.474 0 0 0 14.528 1Zm-1.005 6.46H11.42a.469.469 0 0 1 0-.937h2.103a.469.469 0 1 1 0 .938Zm0-1.757H11.42a.469.469 0 0 1 0-.937h2.103a.469.469 0 0 1 0 .937Zm0-1.757h-5.02a.469.469 0 1 1 0-.938h5.02a.469.469 0 1 1 0 .938Z"/><path d="M8.248 9.268c.084-.248.084-.508.012-.744l1.163-2.327a.469.469 0 0 0-.838-.42l-.992 1.985-2.22-1.104c-.675-.336-1.157-.637-1.98-.637H2.98c.64 0 1.212-.295 1.586-.756a2.042 2.042 0 1 0-1.586.756c-.786 0-1.553.318-2.106.872A2.956 2.956 0 0 0 0 9v1.506c0 .649.421 1.2 1.004 1.397v2.62c0 .259.21.469.469.469h3.012c.26 0 .47-.21.47-.47V9.257l1.5.75a1.28 1.28 0 0 0 1.79-.733l.003-.005Z"/></g><defs><clipPath id="na"><path d="M0 0h16v16H0z"/></clipPath></defs></symbol><symbol viewBox="0 0 16 16" id="repository" xmlns="http://www.w3.org/2000/svg"><circle cx="12" cy="4" r="2"/><circle cx="14" cy="12" r="2"/><path fill-rule="evenodd" clip-rule="evenodd" d="M7.109 3h4.829a1 1 0 1 1 0 2H8.015l-1.75 2H15a1 1 0 1 1 0 2H9.588l1.53 2h2.57a1 1 0 1 1 0 2H10.13L7.07 9H1a1 1 0 0 1 0-2h2.609l3.5-4Z"/></symbol><symbol viewBox="0 0 24 24" id="sCases-project" xmlns="http://www.w3.org/2000/svg"><g clip-path="url(#pa)"><path d="M21.79 1.5H11.248c-1.22 0-2.21.99-2.21 2.21v5.193l1.722.856.86-1.72a2.108 2.108 0 1 1 3.773 1.887L13.86 12.99c.04.406.004.815-.11 1.211h1.012l-2.67 7.341a.703.703 0 1 0 1.322.48l2.844-7.82h.493l2.873 7.823a.703.703 0 0 0 1.32-.485l-2.695-7.339h3.542a2.21 2.21 0 0 0 2.21-2.209V3.709a2.21 2.21 0 0 0-2.21-2.209Zm-1.506 9.69H17.13a.703.703 0 0 1 0-1.405h3.154a.703.703 0 1 1 0 1.406Zm0-2.635H17.13a.703.703 0 1 1 0-1.407h3.154a.703.703 0 1 1 0 1.407Zm0-2.636h-7.53a.703.703 0 1 1 0-1.406h7.53a.703.703 0 1 1 0 1.406Z"/><path d="M12.371 13.902c.127-.373.127-.762.02-1.116l1.744-3.49a.703.703 0 1 0-1.258-.63l-1.488 2.977-3.33-1.656C7.046 9.483 6.324 9.03 5.09 9.03h-.62c.96 0 1.817-.442 2.378-1.133a3.063 3.063 0 1 0-2.38 1.134 4.488 4.488 0 0 0-3.157 1.308A4.433 4.433 0 0 0 0 13.5v2.26c0 .972.632 1.8 1.506 2.094v3.93c0 .389.315.704.703.704h4.519a.703.703 0 0 0 .703-.704v-7.9l2.251 1.126c.497.248 1.077.27 1.595.06a1.921 1.921 0 0 0 1.094-1.168Z"/></g><defs><clipPath id="pa"><path d="M0 0h24v24H0z"/></clipPath></defs></symbol><symbol viewBox="0 0 24 24" id="sCases-video" xmlns="http://www.w3.org/2000/svg"><path d="M12 0C5.373 0 0 5.373 0 12s5.373 12 12 12 12-5.373 12-12C23.993 5.376 18.625.007 12 0Zm5.054 12.382a.856.856 0 0 1-.385.385v.004L9.812 16.2a.857.857 0 0 1-1.24-.771V8.57a.857.857 0 0 1 1.24-.767l6.857 3.429a.857.857 0 0 1 .385 1.15Z"/></symbol><symbol viewBox="0 0 147 22" id="sContact-logo" xmlns="http://www.w3.org/2000/svg"><path d="M5.786 3.611c3.158 0 5.712 2.318 5.712 5.468s-2.602 5.502-5.542 5.502c-1.383 0-2.717-.393-3.727-1.531h-.122v7.96H0V9.954c0-3.862 2.222-6.342 5.786-6.342Zm-.027 9.12c2.087 0 3.517-1.653 3.517-3.652S7.88 5.461 5.759 5.461c-2.12 0-3.577 1.626-3.577 3.605 0 1.978 1.47 3.665 3.577 3.665Zm7.691-3.638c0-3.158 2.643-5.482 5.753-5.482 3.11 0 5.752 2.331 5.752 5.482 0 3.15-2.642 5.481-5.752 5.481s-5.752-2.33-5.752-5.481Zm5.753 3.638c2.1 0 3.53-1.62 3.53-3.638 0-2.02-1.43-3.639-3.53-3.639-2.1 0-3.53 1.606-3.53 3.639 0 2.032 1.43 3.638 3.53 3.638Zm13.524 1.85c-3.306 0-5.813-2.31-5.813-5.481s2.446-5.482 5.739-5.482c2.527 0 4.885 1.369 5.481 3.97h-2.161c-.529-1.395-1.79-2.12-3.26-2.12-2.222 0-3.577 1.653-3.577 3.666 0 2.012 1.396 3.604 3.618 3.604 1.444 0 2.751-.664 3.26-2.175h2.181c-.78 2.765-3.035 4.025-5.468 4.025m13.265-1.524-3.455-7.23h-.061v8.517H40.45V3.836h3.232l3.421 7.195h.061l3.429-7.195h3.225V14.35h-2.026V5.834h-.06l-3.456 7.23h-2.284Zm10.083-3.971c0-3.158 2.643-5.482 5.753-5.482 3.11 0 5.752 2.331 5.752 5.482 0 3.15-2.642 5.481-5.752 5.481s-5.753-2.33-5.753-5.481Zm5.753 3.638c2.107 0 3.53-1.62 3.53-3.638 0-2.02-1.43-3.639-3.53-3.639-2.1 0-3.53 1.606-3.53 3.639 0 2.032 1.43 3.638 3.53 3.638Zm6.822 1.715v-2.182h.048c.406 0 .9-.183 1.2-.528.392-.434.582-1.22.799-2.358l.298-1.68c.345-1.938 1.036-3.91 3.95-3.91h4.099v10.563h-2.1V5.739h-1.64c-1.64 0-1.985.447-2.371 2.69l-.272 1.579c-.237 1.443-.603 2.69-1.355 3.483-.569.603-1.368.948-2.432.948h-.224v.007Zm12.732-5.353c0-3.158 2.642-5.482 5.752-5.482s5.752 2.331 5.752 5.482c0 3.15-2.642 5.481-5.752 5.481s-5.752-2.33-5.752-5.481Zm5.752 3.638c2.1 0 3.53-1.62 3.53-3.638 0-2.02-1.43-3.639-3.53-3.639-2.1 0-3.53 1.606-3.53 3.639 0 2.032 1.43 3.638 3.53 3.638Zm8.185 4.174h-2.026V12.4h1.369c.603-.678.914-1.68 1.199-2.9l.454-1.952c.433-1.876 1.246-3.753 3.848-3.753h4.086v8.611h1.518v4.506h-2.026v-2.554h-8.415v2.554l-.007-.007Zm6.85-4.465V5.712h-1.972c-1.28 0-1.714 1.023-1.972 2.1l-.467 2.027c-.257 1.124-.644 2.06-1.037 2.445v.15h5.441l.007.006Zm10.942 2.14c-3.354 0-5.787-2.31-5.787-5.48 0-3.171 2.446-5.482 5.712-5.482 2.527 0 5.563 1.653 5.563 5.65v.434h-9.168c.224 1.755 1.593 3.036 3.666 3.036 1.233 0 2.703-.454 3.11-1.518h2.161c-.664 2.317-3.11 3.368-5.257 3.368M109.459 0h2.181v2.182h-2.181V0Zm6.944 8.097c-.332-1.593-1.565-2.663-3.394-2.663-1.83 0-3.097 1.138-3.483 2.663h6.884-.007ZM114.195 0h2.181v2.182h-2.181V0Zm14.317 3.836v4.18h1.761l2.48-4.18h2.311l-3.083 5.02 3.34 5.495h-2.358l-2.662-4.43h-1.789v4.43h-1.985v-4.43h-1.782l-2.663 4.43h-2.358l3.334-5.495-3.076-5.02h2.31l2.48 4.18h1.755v-4.18h1.985Zm8.278 5.786-.027-5.786h2.101l.013 2.988h.061c.888-1.084 2.013-1.606 3.368-1.606 2.581 0 4.675 1.924 4.675 4.614s-2.134 4.75-5.061 4.75-5.109-2.087-5.123-4.96m5.082 3.11c1.667 0 2.886-1.172 2.886-2.812s-1.219-2.839-2.886-2.839-2.873 1.2-2.873 2.84c0 1.639 1.22 2.81 2.873 2.81Z"/></symbol><symbol viewBox="0 0 24 24" id="sContact-win" xmlns="http://www.w3.org/2000/svg"><g clip-path="url(#sa)"><path d="M21.167 12.815A2.836 2.836 0 0 0 24 9.982V8.629h-1.796c-.55 0-1.083.16-1.54.458a8.656 8.656 0 0 0-.193-.832l.54-.311a2.814 2.814 0 0 0 1.32-1.72 2.814 2.814 0 0 0-.282-2.15l-.677-1.172-1.555.898a2.842 2.842 0 0 0-1.164 3.622l.319.76a7.38 7.38 0 0 1 .427 2.487c0 4.08-3.319 7.399-7.399 7.399s-7.399-3.32-7.399-7.4c0-.858.144-1.695.427-2.487l.32-.76A2.841 2.841 0 0 0 4.182 3.8l-1.555-.898-.677 1.172a2.815 2.815 0 0 0-.283 2.15 2.815 2.815 0 0 0 1.32 1.72l.54.311a8.662 8.662 0 0 0-.192.832 2.819 2.819 0 0 0-1.54-.458H0v1.353a2.837 2.837 0 0 0 2.834 2.833h.626c.07.277.153.55.249.817a2.813 2.813 0 0 0-1.566.372l-1.555.898.676 1.172a2.834 2.834 0 0 0 3.871 1.036l.546-.316c.199.205.407.4.625.585a2.815 2.815 0 0 0-1.172 1.107l-.898 1.555 1.172.676a2.817 2.817 0 0 0 2.15.283 2.815 2.815 0 0 0 1.72-1.32l.312-.541a8.782 8.782 0 0 0 2.41.335 8.78 8.78 0 0 0 2.41-.335l.312.541a2.835 2.835 0 0 0 3.87 1.037l1.172-.676-.898-1.555a2.814 2.814 0 0 0-1.171-1.107 9.07 9.07 0 0 0 .624-.585l.547.317a2.835 2.835 0 0 0 3.87-1.037l.676-1.172-1.555-.898a2.814 2.814 0 0 0-1.565-.372c.095-.267.179-.54.249-.818l.626.001Z"/><path d="M12 4.707a5.913 5.913 0 0 0-5.906 5.906A5.913 5.913 0 0 0 12 16.52a5.913 5.913 0 0 0 5.907-5.907A5.913 5.913 0 0 0 12 4.707Zm.703 8.25h-1.406V10.51c-.292.13-.614.2-.952.2V9.306a.953.953 0 0 0 .952-.952V8.27h1.406v4.687Z"/></g><defs><clipPath id="sa"><path d="M0 0h24v24H0z"/></clipPath></defs></symbol><symbol viewBox="0 0 85 84" id="star-first" xmlns="http://www.w3.org/2000/svg"><path d="M3.524 41.067a1.083 1.083 0 0 0 0 1.867c2.866 1.689 3.364 5.63 1.008 7.98a1.083 1.083 0 0 0 .464 1.808c3.197.923 4.66 4.617 2.961 7.478-.421.71.074 1.611.9 1.636 3.325.1 5.66 3.314 4.727 6.507a1.083 1.083 0 0 0 1.278 1.361c3.246-.731 6.307 1.802 6.197 5.127a1.083 1.083 0 0 0 1.577 1c2.962-1.515 6.557.177 7.277 3.425a1.083 1.083 0 0 0 1.776.577c2.492-2.204 6.395-1.46 7.9 1.507.374.736 1.4.8 1.864.117 1.866-2.755 5.831-3.004 8.027-.505.545.62 1.556.427 1.834-.35 1.122-3.132 4.9-4.36 7.65-2.485a1.083 1.083 0 0 0 1.689-.795c.308-3.313 3.662-5.442 6.79-4.31a1.083 1.083 0 0 0 1.44-1.19c-.526-3.285 2.193-6.181 5.505-5.863a1.083 1.083 0 0 0 1.098-1.51c-1.327-3.052.587-6.533 3.874-7.049a1.083 1.083 0 0 0 .688-1.735c-2.044-2.626-1.056-6.474 2-7.791a1.083 1.083 0 0 0 .234-1.852c-2.632-2.035-2.632-6.008 0-8.043a1.083 1.083 0 0 0-.234-1.852c-3.056-1.317-4.044-5.165-2-7.791a1.083 1.083 0 0 0-.688-1.736c-3.287-.515-5.2-3.997-3.874-7.048a1.083 1.083 0 0 0-1.098-1.51c-3.312.318-6.031-2.578-5.506-5.864a1.083 1.083 0 0 0-1.438-1.19c-3.129 1.132-6.483-.997-6.791-4.31a1.083 1.083 0 0 0-1.69-.794c-2.748 1.874-6.527.646-7.649-2.486a1.083 1.083 0 0 0-1.834-.35c-2.196 2.5-6.161 2.25-8.027-.505a1.083 1.083 0 0 0-1.863.117c-1.506 2.967-5.409 3.712-7.901 1.508a1.083 1.083 0 0 0-1.776.577c-.72 3.248-4.315 4.94-7.277 3.424a1.083 1.083 0 0 0-1.576 1c.11 3.326-2.952 5.858-6.198 5.127a1.083 1.083 0 0 0-1.278 1.361c.934 3.194-1.402 6.408-4.728 6.508a1.083 1.083 0 0 0-.899 1.635c1.698 2.861.236 6.556-2.96 7.479l-.556-1.922.555 1.922a1.083 1.083 0 0 0-.464 1.808c2.356 2.349 1.858 6.29-1.008 7.98Z"/></symbol><symbol viewBox="0 0 58 58" id="star-second" xmlns="http://www.w3.org/2000/svg"><path d="M2.759 27.508a1.978 1.978 0 0 0 0 2.984 5.978 5.978 0 0 1 1.426 7.172 1.978 1.978 0 0 0 1.142 2.757l-.636 1.896.636-1.896A5.978 5.978 0 0 1 9.39 46.5a1.979 1.979 0 0 0 2.11 2.11 5.979 5.979 0 0 1 6.08 4.062 1.979 1.979 0 0 0 2.756 1.142 5.978 5.978 0 0 1 7.172 1.426 1.978 1.978 0 0 0 2.984 0 5.978 5.978 0 0 1 7.172-1.426 1.979 1.979 0 0 0 2.756-1.142 5.979 5.979 0 0 1 6.08-4.062 1.979 1.979 0 0 0 2.11-2.11 5.979 5.979 0 0 1 4.063-6.08 1.978 1.978 0 0 0 1.142-2.757 5.978 5.978 0 0 1 1.426-7.172 1.978 1.978 0 0 0 0-2.984 5.978 5.978 0 0 1-1.426-7.171 1.978 1.978 0 0 0-1.142-2.757 5.978 5.978 0 0 1-4.063-6.08 1.978 1.978 0 0 0-2.11-2.11 5.978 5.978 0 0 1-6.08-4.062l1.897-.637-1.897.637a1.978 1.978 0 0 0-2.756-1.142 5.979 5.979 0 0 1-7.172-1.427 1.978 1.978 0 0 0-2.984 0 5.979 5.979 0 0 1-7.172 1.427 1.978 1.978 0 0 0-2.756 1.142A5.979 5.979 0 0 1 11.5 9.39a1.978 1.978 0 0 0-2.11 2.11 5.978 5.978 0 0 1-4.063 6.08 1.979 1.979 0 0 0-1.142 2.757 5.978 5.978 0 0 1-1.426 7.171Z"/></symbol><symbol viewBox="0 0 37 37" id="star-third" xmlns="http://www.w3.org/2000/svg"><path d="M4.02 15.041a5.845 5.845 0 0 0 0 6.918 9.845 9.845 0 0 1 1.796 4.334 5.845 5.845 0 0 0 4.891 4.892 9.845 9.845 0 0 1 4.334 1.795 5.845 5.845 0 0 0 6.918 0 9.845 9.845 0 0 1 4.334-1.795 5.845 5.845 0 0 0 4.891-4.892 9.846 9.846 0 0 1 1.796-4.334 5.845 5.845 0 0 0 0-6.918 9.845 9.845 0 0 1-1.796-4.334 5.845 5.845 0 0 0-4.891-4.891 9.846 9.846 0 0 1-4.334-1.795 5.845 5.845 0 0 0-6.918 0l-1.183-1.613 1.183 1.613a9.846 9.846 0 0 1-4.334 1.795 5.845 5.845 0 0 0-4.891 4.891 9.845 9.845 0 0 1-1.796 4.334Z"/></symbol><symbol viewBox="0 0 23 20" id="telegram" xmlns="http://www.w3.org/2000/svg"><path d="m.402 9.498 5.242 1.956 2.029 6.525c.13.418.64.573.98.296l2.922-2.383a.872.872 0 0 1 1.063-.03l5.27 3.827a.618.618 0 0 0 .968-.373L22.736.744a.618.618 0 0 0-.827-.702L.396 8.342a.618.618 0 0 0 .006 1.156Zm6.944.915 10.245-6.31c.184-.113.373.136.215.282l-8.455 7.86a1.752 1.752 0 0 0-.543 1.049l-.288 2.134c-.038.285-.438.313-.517.037l-1.108-3.892a1.032 1.032 0 0 1 .45-1.16Z"/></symbol><symbol viewBox="0 0 16 16" id="viber" xmlns="http://www.w3.org/2000/svg"><path d="M8 1.335c-1.071.013-3.374.19-4.662 1.37-.958.948-1.292 2.35-1.331 4.084-.033 1.728-.072 4.973 3.058 5.856v1.346s-.02.538.337.648c.438.14.688-.275 1.105-.72l.778-.879c2.142.178 3.782-.232 3.97-.293.435-.139 2.883-.451 3.283-3.696.41-3.351-.2-5.463-1.301-6.418h-.007c-.332-.306-1.668-1.279-4.652-1.29 0 0-.222-.014-.578-.008Zm.037.942a7.02 7.02 0 0 1 .488.011c2.527.007 3.732.767 4.017 1.023.927.794 1.405 2.697 1.055 5.495-.332 2.713-2.317 2.885-2.685 3.002-.156.05-1.6.406-3.42.289 0 0-1.356 1.634-1.78 2.055-.067.074-.146.095-.196.085-.071-.018-.093-.107-.089-.229l.013-2.233c-2.655-.733-2.498-3.5-2.47-4.946.033-1.446.304-2.628 1.113-3.43 1.088-.982 3.043-1.115 3.953-1.122Zm.2 1.446a.166.166 0 1 0 0 .332 3.136 3.136 0 0 1 2.242.883c.606.588.9 1.378.912 2.411 0 .092.074.167.167.167V7.51a.167.167 0 0 0 .168-.165 3.588 3.588 0 0 0-1.009-2.646c-.66-.645-1.496-.977-2.48-.977Zm-2.198.382a.523.523 0 0 0-.342.067H5.69a2.61 2.61 0 0 0-.637.523 1.003 1.003 0 0 0-.256.525.71.71 0 0 0 .026.302l.01.006c.172.504.396.988.67 1.444a8.48 8.48 0 0 0 1.29 1.762l.015.022.024.017.015.018.017.015c.532.505 1.127.94 1.769 1.295.734.4 1.18.588 1.447.667v.004c.078.024.15.034.221.034.228-.016.444-.109.613-.262a2.53 2.53 0 0 0 .517-.638v-.004c.128-.241.085-.469-.1-.623-.37-.323-.77-.61-1.195-.857-.285-.155-.574-.061-.69.095l-.25.315c-.129.156-.361.134-.361.134l-.007.004C7.093 8.527 6.63 6.772 6.63 6.772s-.022-.239.139-.36l.312-.252c.15-.122.254-.41.094-.695a7.498 7.498 0 0 0-.856-1.194.475.475 0 0 0-.28-.167Zm2.486.495c-.221 0-.221.334.003.334A2.098 2.098 0 0 1 10 5.572 1.94 1.94 0 0 1 10.5 7a.168.168 0 0 0 .167.165l.007.009a.169.169 0 0 0 .167-.167c.015-.662-.191-1.218-.595-1.663C9.84 4.9 9.273 4.65 8.549 4.6h-.024Zm.274.898c-.228-.006-.236.335-.01.341.55.029.816.306.851.877a.166.166 0 0 0 .165.163h.007a.168.168 0 0 0 .16-.178c-.039-.744-.445-1.164-1.166-1.202H8.8Z"/></symbol><symbol viewBox="0 0 24 24" id="vk" xmlns="http://www.w3.org/2000/svg"><path d="M21.579 6.855c.14-.465 0-.806-.662-.806h-2.193c-.558 0-.813.295-.953.619 0 0-1.115 2.719-2.695 4.482-.51.513-.743.675-1.021.675-.139 0-.341-.162-.341-.627V6.855c0-.558-.161-.806-.626-.806H9.642c-.348 0-.558.258-.558.504 0 .528.79.65.871 2.138v3.228c0 .707-.127.836-.407.836-.743 0-2.551-2.73-3.624-5.853-.209-.607-.42-.852-.98-.852H2.752c-.627 0-.752.295-.752.619 0 .582.743 3.462 3.461 7.27 1.812 2.602 4.363 4.012 6.687 4.012 1.393 0 1.565-.313 1.565-.853v-1.966c0-.626.133-.752.574-.752.324 0 .882.164 2.183 1.417 1.486 1.486 1.732 2.153 2.567 2.153h2.192c.626 0 .939-.313.759-.931-.197-.615-.907-1.51-1.849-2.57-.512-.603-1.277-1.253-1.51-1.578-.325-.42-.231-.604 0-.976.001 0 2.672-3.761 2.95-5.04Z"/></symbol><symbol viewBox="0 0 16 16" id="whatsapp" xmlns="http://www.w3.org/2000/svg"><path fill-rule="evenodd" clip-rule="evenodd" d="M12.269 3.755A5.947 5.947 0 0 0 8.035 2 5.994 5.994 0 0 0 2.05 7.985a5.98 5.98 0 0 0 .799 2.992L2 14.077l3.173-.832c.877.477 1.86.728 2.86.728h.002a5.993 5.993 0 0 0 5.533-8.276 5.953 5.953 0 0 0-1.3-1.942Zm-4.234 9.208h-.002c-.89 0-1.765-.24-2.532-.694l-.181-.108-1.883.494.502-1.835-.118-.188a4.965 4.965 0 0 1-.76-2.647 4.982 4.982 0 0 1 6.88-4.597c.604.25 1.152.618 1.613 1.081a4.946 4.946 0 0 1 1.455 3.52 4.982 4.982 0 0 1-4.974 4.974Zm2.729-3.726c-.15-.075-.885-.436-1.022-.486-.137-.05-.236-.075-.336.074-.1.15-.387.486-.474.586-.087.1-.175.112-.324.038-.15-.075-.631-.233-1.203-.742a4.505 4.505 0 0 1-.832-1.036c-.087-.15-.009-.231.066-.306.068-.066.15-.174.224-.262.075-.087.1-.149.15-.249.05-.1.025-.187-.013-.262-.037-.075-.337-.811-.461-1.11-.121-.29-.244-.252-.336-.256a6.418 6.418 0 0 0-.286-.005.55.55 0 0 0-.4.186c-.137.15-.523.512-.523 1.248s.536 1.447.61 1.547c.075.1 1.055 1.61 2.555 2.258.358.154.636.246.853.315.358.114.684.098.942.06.287-.043.885-.362 1.01-.711.124-.35.124-.649.087-.711-.038-.063-.138-.101-.287-.176Z"/></symbol></svg>