<svg width="40" height="40" viewBox="0 0 40 40" fill="none" xmlns="http://www.w3.org/2000/svg">
<g clip-path="url(#clip0_425_5283)">
<path d="M1.17188 5.4818H1.88281V7.44797C1.88281 8.09516 2.4075 8.61984 3.05469 8.61984C3.70187 8.61984 4.22656 8.09516 4.22656 7.44797V5.4818H4.9375C5.58469 5.4818 6.10938 4.95711 6.10938 4.30992C6.10938 3.66273 5.58469 3.13805 4.9375 3.13805H4.22656V1.17188C4.22656 0.524687 3.70187 0 3.05469 0C2.4075 0 1.88281 0.524687 1.88281 1.17188V3.13805H1.17188C0.524687 3.13805 0 3.66273 0 4.30992C0 4.95711 0.524687 5.4818 1.17188 5.4818Z" fill="#B3E427"/>
<path d="M38.8281 34.5182H38.1172V32.552C38.1172 31.9048 37.5925 31.3802 36.9453 31.3802C36.2981 31.3802 35.7734 31.9048 35.7734 32.552V34.5182H35.0625C34.4153 34.5182 33.8906 35.0429 33.8906 35.6901C33.8906 36.3373 34.4153 36.862 35.0625 36.862H35.7734V38.8281C35.7734 39.4753 36.2981 40 36.9453 40C37.5925 40 38.1172 39.4753 38.1172 38.8281V36.862H38.8281C39.4753 36.862 40 36.3373 40 35.6901C40 35.0429 39.4753 34.5182 38.8281 34.5182Z" fill="#B3E427"/>
<path d="M5.1875 16.2344C5.1875 14.5234 5.42109 12.8662 5.85617 11.2917C2.28008 14.272 0 18.7573 0 23.7656C0 32.7173 7.28274 40 16.2344 40C21.2426 40 25.7279 37.7199 28.7082 34.1438C27.1338 34.5789 25.4766 34.8125 23.7656 34.8125C13.5216 34.8125 5.1875 26.4784 5.1875 16.2344Z" fill="#B3E427"/>
<path d="M20.3982 16.2352L23.7612 12.8722L27.1242 16.2352L23.7612 19.5982L20.3982 16.2352Z" fill="#B3E427"/>
<path d="M23.7656 32.4688C32.7173 32.4688 40 25.186 40 16.2344C40 7.28273 32.7173 0 23.7656 0C14.814 0 7.53125 7.28273 7.53125 16.2344C7.53125 25.186 14.814 32.4688 23.7656 32.4688Z" fill="#B3E427"/>
<path fill-rule="evenodd" clip-rule="evenodd" d="M20.1378 22.8905H17.9156V21.7377H16.6667V20.5294H17.9156V10.1967H19.9706L20.0591 11.7305H20.0886C20.4688 11.2455 21.0325 10.8358 21.7798 10.5015C22.5336 10.1672 23.4153 10 24.4248 10C26.1094 10 27.4597 10.4326 28.4758 11.2979C29.4918 12.1566 29.9998 13.2546 29.9998 14.5918V14.9064C29.9998 16.2568 29.4918 17.3646 28.4758 18.2298C27.4663 19.0886 26.1192 19.5179 24.4346 19.5179C23.4317 19.5179 22.5697 19.377 21.8486 19.0951C21.1341 18.8067 20.5639 18.4199 20.1378 17.9349V20.5294H24.7216V21.7377H20.1378V22.8905ZM20.1378 13.9527V15.5554C20.4131 16.0667 20.8687 16.5157 21.5045 16.9025C22.1469 17.2826 22.9204 17.4727 23.825 17.4727C25.1622 17.4727 26.1422 17.2302 26.7649 16.7451C27.3942 16.2601 27.7088 15.657 27.7088 14.9359V14.5721C27.7088 13.8511 27.3942 13.2513 26.7649 12.7728C26.1422 12.2877 25.1622 12.0452 23.825 12.0452C22.9204 12.0452 22.1502 12.2385 21.5143 12.6253C20.885 13.0055 20.4262 13.4479 20.1378 13.9527Z" fill="white"/>
</g>
<defs>
<clipPath id="clip0_425_5283">
<rect width="40" height="40" fill="white"/>
</clipPath>
</defs>
</svg>
