<svg width="95" height="33" viewBox="0 0 95 33" fill="none" xmlns="http://www.w3.org/2000/svg">
<path d="M91 1L94.6754 17.9261L78.1793 12.646L91 1ZM2 1C3.5 1 3.5 0.999025 3.5 0.998165C3.5 0.99803 3.5 0.99728 3.5 0.997007C3.49999 0.99646 3.49999 0.996359 3.5 0.996704C3.5 0.997396 3.50002 0.999866 3.50007 1.00409C3.50017 1.01253 3.5004 1.02797 3.50093 1.05018C3.50199 1.09462 3.50425 1.1661 3.50903 1.26284C3.5186 1.45636 3.53825 1.75056 3.57856 2.13102C3.65924 2.89244 3.82231 3.99606 4.15147 5.32751C4.81026 7.99227 6.12912 11.5493 8.7673 15.1064C13.9908 22.1494 24.6223 29.5 46.5 29.5V32.5C23.8777 32.5 12.2592 24.8506 6.3577 16.8936C3.43338 12.9507 1.97099 9.00773 1.23915 6.04749C0.873002 4.56644 0.688417 3.32631 0.595263 2.44711C0.54866 2.00725 0.524854 1.65692 0.512694 1.41099C0.506613 1.288 0.50344 1.19103 0.501787 1.12194C0.500961 1.08739 0.500514 1.0598 0.500274 1.0394C0.500154 1.0292 0.500085 1.0208 0.500047 1.01423C0.500028 1.01094 0.500016 1.0081 0.500009 1.00573C0.500006 1.00455 0.500003 1.00311 0.500002 1.00252C0.5 1.0012 0.5 1 2 1ZM46.5 29.5C70.4505 29.5 80.9402 20.6931 85.606 13.0722L88.1645 14.6386C82.8608 23.3016 71.3039 32.5 46.5 32.5V29.5Z" fill="#897AD6"/>
</svg>
