<svg width="95" height="33" viewBox="0 0 95 33" fill="none" xmlns="http://www.w3.org/2000/svg">
<path d="M91 32L94.0391 9.10683L72.6935 17.9215L91 32ZM2 32C4 32 4 32.0013 4 32.0026C4 32.0028 4 32.0039 3.99999 32.0044C3.99999 32.0055 3.99999 32.0061 3.99999 32.0062C3.99999 32.0065 3.99999 32.005 4.00003 32.0018C4.00011 31.9953 4.0003 31.9819 4.00079 31.9618C4.00175 31.9215 4.00386 31.8542 4.00842 31.7619C4.01756 31.5771 4.03652 31.2922 4.07578 30.9217C4.15438 30.1799 4.31386 29.099 4.63686 27.7925C5.28347 25.177 6.57841 21.6842 9.1689 18.1914C14.2794 11.3008 24.7464 4 46.5 4V0C23.7536 0 11.9706 7.6992 5.9561 15.8086C2.98409 19.8158 1.49778 23.823 0.753765 26.8325C0.381451 28.3385 0.19328 29.6014 0.0980463 30.5002C0.0503938 30.95 0.0258962 31.3097 0.0133046 31.5643C0.00700688 31.6917 0.00368154 31.7929 0.00193024 31.8661C0.00105441 31.9027 0.000571966 31.9323 0.000308275 31.9547C0.000176549 31.9659 9.94205e-05 31.9753 5.53131e-05 31.9829C3.32594e-05 31.9866 1.94311e-05 31.99 1.10865e-05 31.9928C7.15256e-06 31.9942 3.57628e-06 31.996 2.38419e-06 31.9968C4.76837e-07 31.9984 0 32 2 32ZM46.5 4C66.6801 4 77.1358 10.2851 82.6116 16.6642L85.6468 14.0589C79.2495 6.60629 67.5737 0 46.5 0V4Z" fill="#897AD6"/>
</svg>
