<svg width="94" height="32" viewBox="0 0 94 32" fill="none" xmlns="http://www.w3.org/2000/svg">
<path d="M90 31L93.3619 19.9532L82.1142 22.5651L90 31ZM1 31C2 31 2 31.0006 2 31.0011C2 31.0011 2 31.0015 2 31.0015C2 31.0016 2 31.0012 2 31.0004C2.00001 30.9987 2.00004 30.9952 2.0001 30.99C2.00022 30.9796 2.00049 30.9621 2.00107 30.9379C2.00223 30.8893 2.00464 30.8136 2.00964 30.7125C2.01964 30.5102 2.03999 30.2067 2.08135 29.8163C2.1641 29.0352 2.33076 27.9089 2.66609 26.5525C3.33705 23.8385 4.67983 20.2171 7.3657 16.5957C12.7022 9.4004 23.4982 2 45.5 2V0C23.0018 0 11.5478 7.5996 5.7593 15.4043C2.88267 19.2829 1.4442 23.1615 0.724539 26.0725C0.364553 27.5286 0.183554 28.746 0.0924802 29.6056C0.0469254 30.0355 0.0238124 30.3765 0.0120844 30.6137C0.00621951 30.7323 0.0031988 30.825 0.00164413 30.89C0.000866711 30.9225 0.000455737 30.9481 0.000239015 30.9665C0.000130713 30.9757 7.09295e-05 30.9831 3.82662e-05 30.9887C2.19345e-05 30.9915 1.23382e-05 30.9938 6.85453e-06 30.9957C4.23193e-06 30.9967 2.08616e-06 30.9977 1.37091e-06 30.9982C2.38419e-07 30.9992 0 31 1 31ZM45.5 2C59.6474 2 69.1515 5.06224 75.5419 9.13874C81.9276 13.2122 85.2765 18.3444 87.0396 22.6137L88.8882 21.8503C86.9947 17.2654 83.4036 11.7815 76.6175 7.4526C69.836 3.12665 59.9364 0 45.5 0V2Z" fill="#897AD6"/>
</svg>
