<svg width="40" height="40" viewBox="0 0 40 40" fill="none" xmlns="http://www.w3.org/2000/svg">
<g clip-path="url(#clip0_425_5293)">
<path d="M25.1562 3.047C25.1562 2.65934 25.4717 2.34387 25.8594 2.34387H29.9219C30.3096 2.34387 30.625 2.65934 30.625 3.047V7.23567H32.9688V3.047C32.9688 1.36692 31.602 0.00012207 29.9219 0.00012207H25.8594C24.1793 0.00012207 22.8125 1.36692 22.8125 3.047V7.23567H25.1562V3.047Z" fill="#B3E427"/>
<path d="M14.2452 37.6564C13.7331 36.8608 13.4375 35.9189 13.4375 34.922V17.3529H2.73437C1.22664 17.3529 0 18.5795 0 20.0873V34.922C0 36.2971 1.02039 37.4379 2.34375 37.6281V38.828C2.34375 39.4752 2.86844 39.9999 3.51562 39.9999C4.16281 39.9999 4.6875 39.4752 4.6875 38.828V37.6563H14.2452V37.6564ZM4.6875 21.6498C4.6875 21.0026 5.21219 20.4779 5.85937 20.4779C6.50656 20.4779 7.03125 21.0026 7.03125 21.6498V33.3595C7.03125 34.0067 6.50656 34.5314 5.85937 34.5314C5.21219 34.5314 4.6875 34.0067 4.6875 33.3595V21.6498Z" fill="#B3E427"/>
<path d="M10.9375 13.1642C10.9375 12.7765 11.253 12.461 11.6406 12.461H13.4375V12.3138C13.4375 11.5274 13.6172 10.7824 13.9377 10.1173H11.6406C9.96055 10.1173 8.59375 11.4841 8.59375 13.1642V15.0091H10.9375V13.1642Z" fill="#B3E427"/>
<path d="M37.2656 9.57947H18.5156C17.0079 9.57947 15.7812 10.8061 15.7812 12.3138V34.922C15.7812 36.2971 16.8016 37.4379 18.125 37.6281V38.828C18.125 39.4752 18.6497 39.9999 19.2969 39.9999C19.9441 39.9999 20.4688 39.4752 20.4688 38.828V37.6563H35.3125V38.828C35.3125 39.4752 35.8372 39.9999 36.4844 39.9999C37.1316 39.9999 37.6562 39.4752 37.6562 38.828V37.6281C38.9795 37.4379 40 36.2971 40 34.922V12.3138C40 10.806 38.7734 9.57947 37.2656 9.57947ZM22.8125 33.3595C22.8125 34.0067 22.2878 34.5314 21.6406 34.5314C20.9934 34.5314 20.4688 34.0067 20.4688 33.3595V13.8763C20.4688 13.2292 20.9934 12.7045 21.6406 12.7045C22.2878 12.7045 22.8125 13.2292 22.8125 13.8763V33.3595ZM34.1406 34.5314C33.4934 34.5314 32.9688 34.0067 32.9688 33.3595V13.8763C32.9688 13.2292 33.4934 12.7045 34.1406 12.7045C34.7878 12.7045 35.3125 13.2292 35.3125 13.8763V33.3595C35.3125 34.0067 34.7878 34.5314 34.1406 34.5314Z" fill="#B3E427"/>
</g>
<defs>
<clipPath id="clip0_425_5293">
<rect width="40" height="40" fill="white"/>
</clipPath>
</defs>
</svg>
