<svg width="16" height="16" viewBox="0 0 16 16" fill="none" xmlns="http://www.w3.org/2000/svg">
<g clip-path="url(#clip0_187_4792)">
<path d="M14.5276 1H7.49817C6.68469 1 6.02539 1.65942 6.02539 2.47278V5.9353C6.39697 6.12 6.79846 6.3197 7.17322 6.50598L7.74658 5.35876C8.09375 4.66504 8.94006 4.38318 9.63354 4.72974C10.3285 5.07751 10.6101 5.92151 10.2622 6.61658L9.24011 8.66125C9.26721 8.93188 9.24316 9.20471 9.16687 9.46875H9.84167L8.06189 14.3628C7.9563 14.6531 8.1604 14.9918 8.50256 14.9918C8.69385 14.9918 8.87378 14.8738 8.94287 14.6831L10.8391 9.46875H11.1676L13.0831 14.6847C13.1528 14.8744 13.3323 14.9918 13.5234 14.9918C13.8431 14.9918 14.0775 14.6725 13.9631 14.3616L12.1663 9.46875H14.5276C15.3409 9.46875 16.0004 8.80933 16.0004 7.99597V2.47278C16.0004 1.65942 15.3409 1 14.5276 1V1ZM13.5232 7.46057H11.42C11.1613 7.46057 10.9513 7.25061 10.9513 6.99182C10.9513 6.73279 11.1613 6.52307 11.42 6.52307H13.5232C13.7822 6.52307 13.9919 6.73279 13.9919 6.99182C13.9919 7.25061 13.7822 7.46057 13.5232 7.46057ZM13.5232 5.70312H11.42C11.1613 5.70312 10.9513 5.49341 10.9513 5.23438C10.9513 4.97559 11.1613 4.76562 11.42 4.76562H13.5232C13.7822 4.76562 13.9919 4.97559 13.9919 5.23438C13.9919 5.49341 13.7822 5.70312 13.5232 5.70312ZM13.5232 3.94592H8.50256C8.24353 3.94592 8.03381 3.73596 8.03381 3.47717C8.03381 3.21838 8.24353 3.00842 8.50256 3.00842H13.5232C13.7822 3.00842 13.9919 3.21838 13.9919 3.47717C13.9919 3.73596 13.7822 3.94592 13.5232 3.94592Z" fill="#897AD6"/>
<path d="M8.24756 9.2677C8.33228 9.01953 8.33167 8.76025 8.26013 8.52368L9.42346 6.19727C9.53918 5.9657 9.44543 5.68408 9.21387 5.56836C8.98242 5.45251 8.70081 5.54639 8.58496 5.77795L7.59277 7.76208C6.99976 7.4668 6.09875 7.0188 5.37292 6.65784C4.69763 6.32202 4.2157 6.02087 3.39343 6.02087H2.97925C3.61951 6.02087 4.19092 5.7262 4.56494 5.26501C4.85034 4.91406 5.021 4.4668 5.021 3.97937C5.021 2.85156 4.10693 1.9375 2.979 1.9375C1.85156 1.9375 0.9375 2.85156 0.9375 3.97937C0.9375 4.521 1.14844 5.01318 1.49255 5.37842C1.86462 5.77405 2.39307 6.02087 2.97888 6.021C2.19348 6.021 1.42566 6.33923 0.873291 6.89307C0.310181 7.45471 0 8.203 0 9.00012V10.5063C0 11.1548 0.421021 11.7065 1.00415 11.9028V14.5229C1.00415 14.7819 1.21399 14.9917 1.4729 14.9917H4.48535C4.74426 14.9917 4.9541 14.7819 4.9541 14.5229V9.25623C5.39856 9.47839 5.98242 9.77026 6.45483 10.0066C6.78601 10.1721 7.17297 10.187 7.51807 10.0466C7.86218 9.90503 8.12744 9.62317 8.24573 9.27319C8.24634 9.27136 8.24695 9.26953 8.24756 9.2677Z" fill="#897AD6"/>
</g>
<defs>
<clipPath id="clip0_187_4792">
<rect width="16" height="16" fill="white"/>
</clipPath>
</defs>
</svg>
