<svg width="16" height="16" viewBox="0 0 16 16" fill="none" xmlns="http://www.w3.org/2000/svg">
<circle cx="12" cy="4" r="2" fill="#897AD6"/>
<circle cx="14" cy="12" r="2" fill="#897AD6"/>
<path fill-rule="evenodd" clip-rule="evenodd" d="M7.10873 3H11.9375C12.4898 3 12.9375 3.44772 12.9375 4C12.9375 4.55228 12.4898 5 11.9375 5H8.01627L6.26627 7H15C15.5523 7 16 7.44772 16 8C16 8.55228 15.5523 9 15 9H9.58756L11.1188 11H13.6875C14.2398 11 14.6875 11.4477 14.6875 12C14.6875 12.5523 14.2398 13 13.6875 13H10.1312L7.06869 9H1C0.447715 9 0 8.55228 0 8C0 7.44772 0.447715 7 1 7H3.60873L7.10873 3Z" fill="#897AD6"/>
</svg>
