<svg width="24" height="24" viewBox="0 0 24 24" fill="none" xmlns="http://www.w3.org/2000/svg">
<g clip-path="url(#clip0_104_5440)">
<path d="M21.1668 12.815C22.729 12.815 24 11.544 24 9.98186V8.62863H22.2044C21.6534 8.62863 21.1206 8.78941 20.664 9.08677C20.6133 8.80638 20.5492 8.52889 20.4712 8.2551L21.0119 7.94396C21.6673 7.5656 22.136 6.95465 22.3319 6.22366C22.5278 5.49268 22.4273 4.72916 22.0489 4.07378L21.3723 2.90186L19.8173 3.79962C19.2037 4.15388 18.7483 4.72274 18.5351 5.40137C18.3252 6.06945 18.3671 6.78652 18.6529 7.42179L18.9719 8.18137C19.2554 8.97493 19.3993 9.81157 19.3993 10.6686C19.3993 14.7485 16.0801 18.0677 12.0002 18.0677C7.92025 18.0677 4.60102 14.7485 4.60102 10.6686C4.60102 9.80951 4.74478 8.97282 5.02813 8.18142L5.3471 7.42179C5.63294 6.78647 5.67479 6.06945 5.4649 5.40137C5.25167 4.72274 4.7963 4.15388 4.18268 3.79962L2.62766 2.90186L1.9511 4.07378C1.57269 4.72916 1.47219 5.49268 1.66803 6.22366C1.86386 6.95465 2.33269 7.5656 2.98891 7.94442L3.52857 8.25501C3.45071 8.52865 3.38659 8.80609 3.33592 9.08672C2.87928 8.78941 2.34647 8.62863 1.79552 8.62863H0V9.98186C0 11.5441 1.27097 12.815 2.83414 12.815L3.45966 12.8142C3.52955 13.0923 3.6128 13.3652 3.70851 13.6322C3.1631 13.6018 2.62026 13.7285 2.14271 14.0042L0.58779 14.902L1.2644 16.0739C1.78854 16.9818 2.74246 17.4898 3.72257 17.4898C4.20307 17.4898 4.69008 17.3676 5.13547 17.1104L5.68136 16.7942C5.87986 16.999 6.08822 17.194 6.30566 17.3788C5.81766 17.625 5.41015 18.0069 5.13364 18.4857L4.23588 20.0407L5.4078 20.7173C5.84438 20.9693 6.32882 21.0981 6.81981 21.0981C7.0659 21.0981 7.31367 21.0658 7.55769 21.0003C8.28868 20.8045 8.89962 20.3357 9.2785 19.6795L9.58978 19.1385C10.3561 19.3569 11.1647 19.4739 12.0002 19.4739C12.8355 19.4739 13.6441 19.357 14.4103 19.1386L14.7221 19.6803C15.2463 20.5882 16.2005 21.0963 17.1804 21.0963C17.6607 21.0963 18.1472 20.9742 18.5922 20.7173L19.7642 20.0407L18.8664 18.4858C18.59 18.007 18.1825 17.6252 17.6946 17.379C17.9121 17.1941 18.1204 16.9991 18.319 16.7943L18.8655 17.111C19.3106 17.3679 19.7969 17.49 20.2773 17.49C21.2571 17.49 22.2115 16.9818 22.7356 16.074L23.4123 14.9021L21.8573 14.0043C21.3798 13.7287 20.8371 13.602 20.2918 13.6323C20.3875 13.3653 20.4707 13.0924 20.5407 12.8143L21.1668 12.815Z" fill="white"/>
<path d="M12 4.70679C8.74315 4.70679 6.09351 7.35643 6.09351 10.6133C6.09351 13.8702 8.74315 16.5199 12 16.5199C15.2569 16.5199 17.9066 13.8702 17.9066 10.6133C17.9066 7.35643 15.2569 4.70679 12 4.70679ZM12.703 12.957H11.2968V10.5101C11.0055 10.6391 10.6834 10.7109 10.3448 10.7109V9.30467C10.8697 9.30467 11.2968 8.87761 11.2968 8.35268V8.26966H12.703V12.957Z" fill="white"/>
</g>
<defs>
<clipPath id="clip0_104_5440">
<rect width="24" height="24" fill="white"/>
</clipPath>
</defs>
</svg>
