<svg width="147" height="22" viewBox="0 0 147 22" fill="none" xmlns="http://www.w3.org/2000/svg">
<path d="M5.78629 3.61145C8.94366 3.61145 11.4981 5.92867 11.4981 9.07927C11.4981 12.2299 8.89623 14.581 5.95567 14.581C4.57348 14.581 3.23871 14.188 2.22916 13.0497H2.10716V21.0109H0V9.95329C0 6.09127 2.22238 3.61145 5.78629 3.61145ZM5.75916 12.7313C7.84601 12.7313 9.27568 11.078 9.27568 9.07927C9.27568 7.0805 7.87988 5.46114 5.75916 5.46114C3.63843 5.46114 2.18177 7.08726 2.18177 9.06571C2.18177 11.0441 3.65198 12.7313 5.75916 12.7313Z" fill="#8B64D7"/>
<path d="M13.4507 9.09279C13.4507 5.93542 16.0931 3.61145 19.2031 3.61145C22.313 3.61145 24.9554 5.94219 24.9554 9.09279C24.9554 12.2434 22.313 14.5742 19.2031 14.5742C16.0931 14.5742 13.4507 12.2434 13.4507 9.09279ZM19.2031 12.7313C21.3035 12.7313 22.7331 11.1119 22.7331 9.09279C22.7331 7.0737 21.3035 5.45436 19.2031 5.45436C17.1027 5.45436 15.673 7.06015 15.673 9.09279C15.673 11.1254 17.1027 12.7313 19.2031 12.7313Z" fill="#8B64D7"/>
<path d="M32.7272 14.581C29.4208 14.581 26.9139 12.2706 26.9139 9.09963C26.9139 5.9287 29.3598 3.61829 32.6527 3.61829C35.1799 3.61829 37.5378 4.98692 38.134 7.58871H35.9727C35.4442 6.19296 34.1839 5.46798 32.7136 5.46798C30.4913 5.46798 29.1362 7.12122 29.1362 9.13354C29.1362 11.1459 30.532 12.7381 32.7543 12.7381C34.1975 12.7381 35.5051 12.0741 36.0133 10.5632H38.195C37.4158 13.3276 35.1596 14.5878 32.7272 14.5878" fill="#8B64D7"/>
<path d="M45.9922 13.0639L42.5368 5.83443H42.4758V14.3512H40.45V3.83569H43.6819L47.1034 11.0313H47.1644L50.5928 3.83569H53.818V14.3512H51.7921V5.83443H51.7311L48.2756 13.0639H45.9922Z" fill="#8B64D7"/>
<path d="M56.0753 9.09279C56.0753 5.93542 58.7177 3.61145 61.8276 3.61145C64.9376 3.61145 67.58 5.94219 67.58 9.09279C67.58 12.2434 64.9376 14.5742 61.8276 14.5742C58.7177 14.5742 56.0753 12.2434 56.0753 9.09279ZM61.8276 12.7313C63.9348 12.7313 65.3577 11.1119 65.3577 9.09279C65.3577 7.0737 63.928 5.45436 61.8276 5.45436C59.7272 5.45436 58.2976 7.06015 58.2976 9.09279C58.2976 11.1254 59.7272 12.7313 61.8276 12.7313Z" fill="#8B64D7"/>
<path d="M68.6504 14.4458V12.2641H68.6978C69.1043 12.2641 69.5989 12.0811 69.8971 11.7356C70.29 11.302 70.4798 10.516 70.6966 9.37774L70.9947 7.69739C71.3402 5.7596 72.0313 3.78796 74.9448 3.78796H79.044V14.3509H76.9436V5.73931H75.3039C73.6642 5.73931 73.3187 6.18647 72.9325 8.42915L72.6614 10.0079C72.4243 11.451 72.0584 12.6977 71.3063 13.4905C70.7372 14.0935 69.9377 14.439 68.874 14.439H68.6504V14.4458Z" fill="#8B64D7"/>
<path d="M81.3815 9.09279C81.3815 5.93542 84.024 3.61145 87.134 3.61145C90.2439 3.61145 92.8864 5.94219 92.8864 9.09279C92.8864 12.2434 90.2439 14.5742 87.134 14.5742C84.024 14.5742 81.3815 12.2434 81.3815 9.09279ZM87.134 12.7313C89.2344 12.7313 90.664 11.1119 90.664 9.09279C90.664 7.0737 89.2344 5.45436 87.134 5.45436C85.0336 5.45436 83.6039 7.06015 83.6039 9.09279C83.6039 11.1254 85.0336 12.7313 87.134 12.7313Z" fill="#8B64D7"/>
<path d="M95.3188 16.9053H93.2929V12.3996H94.6616C95.2646 11.7221 95.5762 10.7193 95.8608 9.49974L96.3147 7.5484C96.7484 5.67159 97.5615 3.7948 100.163 3.7948H104.249V12.4064H105.767V16.9121H103.741V14.3578H95.3256V16.9121L95.3188 16.9053ZM102.169 12.4403V5.71223H100.197C98.9165 5.71223 98.4829 6.73535 98.2255 7.81265L97.7579 9.83852C97.5005 10.9632 97.1142 11.8983 96.7213 12.2845V12.4335H102.162L102.169 12.4403Z" fill="#8B64D7"/>
<path d="M113.111 14.5808C109.757 14.5808 107.324 12.2704 107.324 9.09947C107.324 5.92854 109.77 3.61813 113.036 3.61813C115.563 3.61813 118.599 5.27132 118.599 9.26885V9.70249H109.431C109.655 11.4573 111.024 12.7379 113.097 12.7379C114.33 12.7379 115.8 12.2839 116.207 11.2202H118.368C117.704 13.5374 115.258 14.5876 113.111 14.5876M109.459 0H111.64V2.18173H109.459V0ZM116.403 8.09671C116.071 6.50447 114.838 5.43395 113.009 5.43395C111.179 5.43395 109.912 6.57223 109.526 8.09671H116.41H116.403ZM114.195 0H116.376V2.18173H114.195V0Z" fill="#8B64D7"/>
<path d="M128.512 3.83569V8.01615H130.273L132.753 3.83569H135.064L131.981 8.85631L135.321 14.3512H132.963L130.301 9.92006H128.512V14.3512H126.527V9.92006H124.745L122.082 14.3512H119.724L123.058 8.85631L119.982 3.83569H122.292L124.772 8.01615H126.527V3.83569H128.512Z" fill="#8B64D7"/>
<path d="M136.79 9.62194L136.763 3.83569H138.864L138.877 6.82366H138.938C139.826 5.73959 140.951 5.21788 142.306 5.21788C144.887 5.21788 146.981 7.14211 146.981 9.83198C146.981 12.5218 144.847 14.5816 141.92 14.5816C138.993 14.5816 136.811 12.4947 136.797 9.62194M141.879 12.7319C143.546 12.7319 144.765 11.5597 144.765 9.92006C144.765 8.2804 143.546 7.08113 141.879 7.08113C140.212 7.08113 139.006 8.2804 139.006 9.92006C139.006 11.5597 140.226 12.7319 141.879 12.7319Z" fill="#8B64D7"/>
</svg>
