<svg width="85" height="84" viewBox="0 0 85 84" fill="none" xmlns="http://www.w3.org/2000/svg">
<path d="M3.52372 41.0668C2.81253 41.4859 2.81253 42.5146 3.52372 42.9336C6.39027 44.6227 6.88825 48.5646 4.53181 50.9135C3.94718 51.4963 4.20301 52.4926 4.99607 52.7217C8.19262 53.6448 9.65526 57.339 7.95701 60.2001C7.53567 60.91 8.03125 61.8114 8.85634 61.836C12.182 61.9352 14.5175 65.1496 13.5841 68.3432C13.3525 69.1355 14.0567 69.8854 14.862 69.704C18.1079 68.973 21.1693 71.5057 21.0595 74.831C21.0322 75.6561 21.9008 76.2073 22.6356 75.8313C25.5978 74.3161 29.1929 76.0078 29.9134 79.256C30.0922 80.0619 31.0706 80.3797 31.6889 79.8329C34.1811 77.6286 38.084 78.3731 39.5897 81.34C39.9633 82.0761 40.9899 82.1407 41.4528 81.4572C43.3186 78.7024 47.284 78.4529 49.4803 80.9522C50.0252 81.5723 51.0356 81.3795 51.314 80.6024C52.436 77.4701 56.2148 76.2423 58.9636 78.1169C59.6456 78.582 60.5764 78.144 60.6527 77.322C60.9605 74.0091 64.3153 71.8801 67.4439 73.0122C68.2202 73.2931 69.0128 72.6374 68.8823 71.8223C68.3566 68.5369 71.0764 65.6405 74.3883 65.959C75.21 66.038 75.8147 65.2057 75.4856 64.4487C74.1593 61.3973 76.0735 57.9155 79.3605 57.4003C80.176 57.2725 80.5547 56.316 80.0477 55.6646C78.0043 53.0389 78.9924 49.1905 82.048 47.874C82.8061 47.5474 82.935 46.5268 82.282 46.0219C79.6497 43.9869 79.6497 40.0136 82.282 37.9786C82.935 37.4737 82.8061 36.4531 82.048 36.1265C78.9924 34.81 78.0043 30.9616 80.0477 28.3359C80.5547 27.6845 80.176 26.728 79.3605 26.6002C76.0735 26.085 74.1593 22.6032 75.4856 19.5518C75.8147 18.7947 75.21 17.9625 74.3883 18.0415C71.0764 18.36 68.3566 15.4636 68.8823 12.1782C69.0128 11.3631 68.2201 10.7074 67.4439 10.9883C64.3153 12.1203 60.9605 9.99136 60.6527 6.67846C60.5764 5.85652 59.6456 5.41854 58.9636 5.88361C56.2148 7.75817 52.436 6.53037 51.314 3.3981C51.0356 2.62098 50.0251 2.42823 49.4803 3.04829C47.284 5.54757 43.3186 5.29809 41.4528 2.54325C40.9899 1.85978 39.9633 1.92437 39.5897 2.66047C38.084 5.62742 34.1811 6.37193 31.6889 4.16764C31.0705 3.62075 30.0922 3.93863 29.9134 4.74451C29.1929 7.99271 25.5978 9.68444 22.6356 8.16918C21.9007 7.79325 21.0322 8.34444 21.0595 9.16946C21.1693 12.4948 18.1079 15.0275 14.862 14.2965C14.0567 14.1151 13.3525 14.865 13.5841 15.6573C14.5175 18.8509 12.182 22.0653 8.85634 22.1645C8.03124 22.1891 7.53567 23.0905 7.95701 23.8003C9.65526 26.6615 8.19261 30.3557 4.99607 31.2788L4.44116 29.3573L4.99606 31.2788C4.20301 31.5079 3.94718 32.5042 4.53182 33.087C6.88825 35.4359 6.39027 39.3778 3.52372 41.0668Z" stroke="#897AD6" stroke-width="4"/>
</svg>
