<svg width="58" height="58" viewBox="0 0 58 58" fill="none" xmlns="http://www.w3.org/2000/svg">
<path d="M2.75887 27.5082C1.8533 28.2968 1.8533 29.7037 2.75887 30.4923C4.81122 32.2795 5.39758 35.2273 4.18538 37.6638C3.65052 38.7389 4.18892 40.0387 5.32733 40.4207L4.69109 42.3168L5.32734 40.4208C7.9074 41.2865 9.57718 43.7855 9.38969 46.5005C9.30697 47.6984 10.3018 48.6933 11.4998 48.6106C14.2147 48.4231 16.7137 50.0929 17.5795 52.6729C17.9615 53.8113 19.2613 54.3497 20.3364 53.8149C22.773 52.6027 25.7208 53.189 27.508 55.2414C28.2965 56.1469 29.7035 56.1469 30.492 55.2414C32.2792 53.189 35.227 52.6027 37.6636 53.8149C38.7387 54.3497 40.0385 53.8113 40.4205 52.6729C41.2863 50.0929 43.7853 48.4231 46.5003 48.6106C47.6982 48.6933 48.693 47.6984 48.6103 46.5005C48.4228 43.7855 50.0926 41.2865 52.6727 40.4207C53.8111 40.0387 54.3495 38.7389 53.8146 37.6638C52.6024 35.2273 53.1888 32.2795 55.2411 30.4923C56.1467 29.7037 56.1467 28.2968 55.2411 27.5082C53.1888 25.721 52.6024 22.7732 53.8146 20.3367C54.3495 19.2616 53.8111 17.9617 52.6727 17.5797C50.0926 16.714 48.4228 14.215 48.6103 11.5C48.693 10.302 47.6982 9.30721 46.5002 9.38993C43.7853 9.57742 41.2863 7.90764 40.4205 5.32758L42.3166 4.69133L40.4205 5.32758C40.0385 4.18916 38.7387 3.65076 37.6636 4.18562C35.227 5.39782 32.2792 4.81147 30.492 2.75912C29.7035 1.85354 28.2965 1.85354 27.508 2.75911C25.7208 4.81147 22.773 5.39782 20.3364 4.18563C19.2613 3.65076 17.9615 4.18916 17.5795 5.32758C16.7137 7.90764 14.2147 9.57742 11.4997 9.38993C10.3018 9.30721 9.30696 10.302 9.38969 11.5C9.57718 14.215 7.9074 16.714 5.32734 17.5797C4.18892 17.9617 3.65052 19.2616 4.18538 20.3367C5.39758 22.7732 4.81123 25.721 2.75887 27.5082Z" stroke="#897AD6" stroke-width="4"/>
</svg>
