<svg width="37" height="37" viewBox="0 0 37 37" fill="none" xmlns="http://www.w3.org/2000/svg">
<path d="M4.02034 15.0414C2.50925 17.0997 2.50925 19.9008 4.02034 21.9591C4.95923 23.238 5.57512 24.7249 5.81556 26.2931C6.20252 28.8171 8.18314 30.7977 10.7071 31.1847C12.2753 31.4251 13.7622 32.041 15.0412 32.9799C17.0995 34.491 19.9005 34.491 21.9588 32.9799C23.2378 32.041 24.7247 31.4251 26.2929 31.1847C28.8169 30.7977 30.7975 28.8171 31.1844 26.2931C31.4249 24.7249 32.0408 23.238 32.9797 21.9591C34.4908 19.9008 34.4908 17.0997 32.9797 15.0414C32.0408 13.7625 31.4249 12.2756 31.1844 10.7073C30.7975 8.18338 28.8169 6.20276 26.2929 5.8158C24.7247 5.57536 23.2378 4.95947 21.9588 4.02058C19.9005 2.50949 17.0995 2.50949 15.0412 4.02058L13.8576 2.40838L15.0412 4.02058C13.7622 4.95947 12.2753 5.57536 10.7071 5.8158C8.18314 6.20276 6.20252 8.18338 5.81556 10.7073C5.57512 12.2756 4.95923 13.7625 4.02034 15.0414Z" stroke="#897AD6" stroke-width="4"/>
</svg>
