<svg width="23" height="20" viewBox="0 0 23 20" fill="none" xmlns="http://www.w3.org/2000/svg">
<path d="M0.401832 9.4977L5.64388 11.4542L7.67288 17.9794C7.80271 18.3973 8.31375 18.5518 8.65295 18.2745L11.575 15.8924C11.8812 15.6429 12.3175 15.6304 12.6376 15.8628L17.9079 19.6891C18.2707 19.9528 18.7848 19.754 18.8758 19.3155L22.7366 0.744642C22.8359 0.265679 22.3653 -0.133886 21.9092 0.0425018L0.395689 8.34177C-0.135219 8.54652 -0.130594 9.29819 0.401832 9.4977ZM7.34589 10.4127L17.5908 4.10284C17.7749 3.98978 17.9644 4.23874 17.8063 4.3854L9.35122 12.2448C9.05403 12.5214 8.86233 12.8916 8.80803 13.2935L8.52001 15.4279C8.48187 15.7128 8.08155 15.7411 8.00291 15.4653L6.89521 11.5732C6.76834 11.1293 6.95322 10.6551 7.34589 10.4127Z" fill="white"/>
</svg>
