<?xml version="1.0" standalone="no"?>
<!DOCTYPE svg PUBLIC "-//W3C//DTD SVG 20010904//EN"
 "http://www.w3.org/TR/2001/REC-SVG-20010904/DTD/svg10.dtd">
<svg version="1.0" xmlns="http://www.w3.org/2000/svg"
 width="128.000000pt" height="128.000000pt" viewBox="0 0 128.000000 128.000000"
 preserveAspectRatio="xMidYMid meet">
<metadata>
Created by potrace 1.14, written by Peter Selinger 2001-2017
</metadata>
<g transform="translate(0.000000,128.000000) scale(0.100000,-0.100000)"
fill="#000000" stroke="none">
<path d="M100 720 c-26 -26 -26 -74 0 -100 19 -19 33 -20 266 -20 l246 0 35
-30 34 -30 239 0 c284 0 280 -2 280 100 0 108 43 100 -560 100 -507 0 -521 -1
-540 -20z m1020 -45 c0 -16 -35 -21 -44 -6 -8 12 4 21 26 21 10 0 18 -7 18
-15z m-237 -10 c-4 -15 -36 -12 -41 3 -3 9 3 13 19 10 13 -1 23 -7 22 -13z
m-123 -25 c0 -5 -16 -10 -35 -10 -19 0 -35 5 -35 10 0 6 16 10 35 10 19 0 35
-4 35 -10z m240 0 c0 -5 16 -10 36 -10 24 0 34 -4 32 -12 -7 -20 -57 -22 -64
-4 -5 12 -20 16 -60 16 -30 0 -54 5 -54 10 0 6 25 10 55 10 30 0 55 -4 55 -10z
m-162 -27 c2 -9 -8 -13 -32 -13 -34 0 -52 11 -39 24 11 11 66 2 71 -11z"/>
</g>
</svg>
